<?xml version="1.0" encoding="UTF-8"?>
<svg version="1.1" xmlns="http://www.w3.org/2000/svg" width="1536" height="1024">
<path d="M0 0 C506.88 0 1013.76 0 1536 0 C1536 337.92 1536 675.84 1536 1024 C1029.12 1024 522.24 1024 0 1024 C0 686.08 0 348.16 0 0 Z " fill="#FDFDFD" transform="translate(0,0)"/>
<path d="M0 0 C0.93948486 0.4338501 1.87896973 0.8677002 2.84692383 1.31469727 C3.91628174 1.80204346 4.98563965 2.28938965 6.08740234 2.79150391 C7.23136475 3.31607178 8.37532715 3.84063965 9.55395508 4.38110352 C19.08480936 8.6851723 28.66159523 12.75836917 38.42895508 16.50610352 C39.47913818 16.91078857 40.52932129 17.31547363 41.61132812 17.73242188 C47.01168089 19.77972497 52.41292377 21.58250633 57.9597168 23.18530273 C60.36351441 23.94267699 62.64139679 24.84624001 64.96411133 25.82250977 C72.05975076 28.73464098 79.44500775 30.75414869 86.80395508 32.88110352 C87.56599243 33.10247986 88.32802979 33.3238562 89.11315918 33.55194092 C93.57682009 34.84845013 98.04333973 36.1346137 102.51239014 37.41241455 C104.07093746 37.85893782 105.62826652 38.30971025 107.18530273 38.76147461 C128.1960504 44.82906018 149.92714241 48.69927258 171.36645508 52.94360352 C171.42652084 65.52045095 171.43442478 78.09633779 171.37567139 90.67321777 C171.36798631 92.566394 171.36580369 94.45959155 171.36499023 96.3527832 C171.30159487 113.28840095 168.36230598 129.98311621 165.74145508 146.67407227 C165.61852081 147.46363815 165.49558655 148.25320404 165.368927 149.06669617 C164.87920574 152.12864657 164.34897749 154.99603628 163.36645508 157.94360352 C162.73481445 157.7618457 162.10317383 157.58008789 161.45239258 157.39282227 C158.43187098 156.54411663 155.39978537 155.74526938 152.36645508 154.94360352 C151.38676758 154.65743164 150.40708008 154.37125977 149.39770508 154.07641602 C133.94526486 150.0603115 116.6101663 150.44689279 101.15942383 154.28735352 C98.36645508 154.94360352 98.36645508 154.94360352 94.36645508 154.94360352 C94.36645508 137.45360352 94.36645508 119.96360352 94.36645508 101.94360352 C80.83645508 101.94360352 67.30645508 101.94360352 53.36645508 101.94360352 C53.47086914 107.60258789 53.5752832 113.26157227 53.68286133 119.09204102 C53.72888663 122.69239516 53.77221241 126.29238304 53.8059082 129.89282227 C53.85956713 135.59916157 53.92281124 141.30419261 54.04541016 147.00952148 C54.14371025 151.61324942 54.19711743 156.2155736 54.22035027 160.82027054 C54.23689041 162.57061474 54.26919158 164.3208881 54.31802559 166.07062912 C54.73065793 181.47808943 54.73065793 181.47808943 49.03417969 187.77807617 C47.4787281 189.16709678 45.92283922 190.55562791 44.36645508 191.94360352 C42.21401636 194.85463233 40.26460678 197.8618984 38.36645508 200.94360352 C36.36645508 198.94360352 36.36645508 198.94360352 36.12594604 196.91879272 C36.13038727 196.088284 36.13482849 195.25777527 36.1394043 194.40209961 C36.13963089 192.99086319 36.13963089 192.99086319 36.13986206 191.55111694 C36.15018463 190.53337189 36.1605072 189.51562683 36.17114258 188.46704102 C36.17397247 187.4266568 36.17680237 186.38627258 36.17971802 185.31436157 C36.19093804 181.98232657 36.21604593 178.65055765 36.24145508 175.31860352 C36.25148252 173.06339906 36.26060878 170.8081904 36.26879883 168.55297852 C36.28918412 163.01633451 36.32832962 157.48026782 36.36645508 151.94360352 C22.50645508 151.94360352 8.64645508 151.94360352 -5.63354492 151.94360352 C-5.60325195 157.84734863 -5.57295898 163.75109375 -5.54174805 169.83374023 C-5.44154366 189.37548043 -5.34184061 208.91722315 -5.24239349 228.45896721 C-5.18210771 240.30296836 -5.12165265 252.14696859 -5.06079102 263.9909668 C-5.00770878 274.32113795 -4.95495239 284.65131072 -4.90257788 294.98148549 C-4.87486705 300.44488148 -4.84699944 305.90827658 -4.81874084 311.37166977 C-4.79207649 316.52783769 -4.76585214 321.68400766 -4.73994637 326.84017944 C-4.73043106 328.71931158 -4.72076333 330.59844295 -4.71092033 332.47757339 C-4.64910621 344.29977316 -4.62477735 356.12122718 -4.63354492 367.94360352 C0.31645508 365.63360352 5.26645508 363.32360352 10.36645508 360.94360352 C10.69645508 361.60360352 11.02645508 362.26360352 11.36645508 362.94360352 C9.02168234 364.15371145 6.6686167 365.33603061 4.30395508 366.50610352 C3.64717773 366.84834961 2.99040039 367.1905957 2.3137207 367.54321289 C-2.40237076 369.84317868 -5.39801449 370.34840199 -10.63354492 368.94360352 C-13.19184551 367.87625153 -15.56549831 366.78633761 -18.00854492 365.50610352 C-18.69553467 365.15338379 -19.38252441 364.80066406 -20.09033203 364.43725586 C-33.48267425 357.46589964 -46.18121128 349.46266729 -58.63354492 340.94360352 C-57.97354492 340.61360352 -57.31354492 340.28360352 -56.63354492 339.94360352 C-54.13959308 341.35177389 -51.77379559 342.8120313 -49.38354492 344.38110352 C-47.9396609 345.30781214 -46.49431787 346.23225102 -45.04760742 347.15454102 C-44.31445312 347.62214844 -43.58129883 348.08975586 -42.82592773 348.5715332 C-36.92861076 352.26228169 -30.85512444 355.83281376 -24.63354492 358.94360352 C-23.87751328 321.07126827 -23.39323183 283.20398409 -23.10131836 245.32519531 C-23.04963118 238.69798152 -22.99474131 232.07079418 -22.94018555 225.44360352 C-22.83498006 212.61029262 -22.73338415 199.77695728 -22.63354492 186.94360352 C-36.49354492 186.94360352 -50.35354492 186.94360352 -64.63354492 186.94360352 C-64.50111811 199.93270192 -64.36725716 212.92177499 -64.22948456 225.91081619 C-64.20726818 228.00876399 -64.18513725 230.1067127 -64.16309357 232.20466232 C-63.83566531 264.07360155 -63.83566531 264.07360155 -63.30932617 295.93969727 C-63.28385208 297.22710815 -63.25837799 298.51451904 -63.23213196 299.84094238 C-63.11490448 305.62103275 -62.9880785 311.4007775 -62.85058594 317.18041992 C-62.82824387 318.19604507 -62.80590179 319.21167023 -62.78288269 320.2580719 C-62.74211374 322.1080598 -62.69721706 323.95796382 -62.64717102 325.807724 C-62.52080745 331.71812858 -62.52080745 331.71812858 -63.63354492 333.94360352 C-62.97354492 334.27360352 -62.31354492 334.60360352 -61.63354492 334.94360352 C-61.63354492 335.93360352 -61.63354492 336.92360352 -61.63354492 337.94360352 C-66.51102392 336.38913979 -69.96810952 333.55325605 -73.88354492 330.38110352 C-74.5203418 329.87385742 -75.15713867 329.36661133 -75.81323242 328.84399414 C-80.38850524 325.1886432 -80.38850524 325.1886432 -81.63354492 323.94360352 C-81.7287386 321.14370632 -81.75908436 318.36854177 -81.74707031 315.56835938 C-81.74721634 314.690392 -81.74736237 313.81242462 -81.74751282 312.90785217 C-81.74681337 309.99135917 -81.73901947 307.07492918 -81.73120117 304.15844727 C-81.72933711 302.1420546 -81.72791315 300.12566147 -81.72691345 298.10926819 C-81.72308736 292.79095214 -81.71325631 287.47266321 -81.70220947 282.15435791 C-81.69020317 275.77924917 -81.68559354 269.40413139 -81.67975616 263.02901459 C-81.6700446 253.33385867 -81.65088868 243.63876232 -81.63354492 233.94360352 C-95.16354492 233.94360352 -108.69354492 233.94360352 -122.63354492 233.94360352 C-122.63354492 249.45360352 -122.63354492 264.96360352 -122.63354492 280.94360352 C-126.4708432 277.10630524 -129.4623921 273.59840305 -132.38354492 269.13110352 C-132.81401123 268.47658203 -133.24447754 267.82206055 -133.68798828 267.14770508 C-153.44969531 236.71387955 -166.09652461 202.65527451 -173.18920898 167.13452148 C-173.66561279 164.78548425 -174.17535613 162.44509103 -174.68823242 160.10375977 C-177.05642074 149.08047085 -178.53451675 138.15708019 -179.39990234 126.91625977 C-179.58931612 124.93890676 -179.58931612 124.93890676 -180.12475586 123.04077148 C-185.44640525 101.10556599 -182.86980359 75.36636869 -182.63354492 52.94360352 C-175.62699164 51.42632876 -168.61831837 49.92993152 -161.59057617 48.51391602 C-148.50428371 45.87279524 -135.52909459 43.08727258 -122.66674805 39.50512695 C-120.69598298 38.96084746 -118.72120578 38.43637184 -116.74291992 37.92016602 C-81.09806306 28.59881223 -41.40284847 17.86715249 -9.61621094 -1.27099609 C-6.10837671 -2.66056668 -3.36961278 -1.35165611 0 0 Z " fill="#1B6B93" transform="translate(770.633544921875,227.056396484375)"/>
<path d="M0 0 C2.98752835 0.97551946 5.43286838 2.32876378 8.13793945 3.90332031 C11.26008817 5.68242624 14.46967415 7.27738813 17.6875 8.875 C18.72910278 9.39380737 18.72910278 9.39380737 19.79174805 9.9230957 C26.15746602 13.07718843 32.59494392 16.06096735 39.0625 19 C39.949375 19.41894531 40.83625 19.83789062 41.75 20.26953125 C48.95750191 23.64804777 56.34918354 26.44064494 63.81787109 29.17333984 C66.19179677 30.04761789 68.55904903 30.93847387 70.92578125 31.83203125 C82.21491989 36.08525873 82.21491989 36.08525873 93.8359375 39.296875 C96.0625 40 96.0625 40 98.45703125 41.48828125 C101.45237983 43.22621213 103.97751558 43.79473268 107.375 44.4375 C112.93910123 45.54677999 118.43787468 46.79302918 123.9375 48.1875 C124.64559814 48.36659912 125.35369629 48.54569824 126.08325195 48.73022461 C127.74350394 49.15150713 129.40308121 49.5754474 131.0625 50 C131.0625 50.66 131.0625 51.32 131.0625 52 C131.99578125 51.95230469 132.9290625 51.90460938 133.890625 51.85546875 C139.02036723 51.85933539 143.84793708 53.12505588 148.8125 54.3125 C149.79968018 54.54179199 150.78686035 54.77108398 151.80395508 55.00732422 C156.48819637 56.10598679 161.13476356 57.26157312 165.75 58.625 C171.53478335 60.29532081 177.47560603 61.07865595 183.4284668 61.91064453 C187.62776079 62.51726195 191.11808131 63.39886837 195.0625 65 C197.5625 65.16666667 197.5625 65.16666667 200.0625 65 C203.95871664 64.91354549 206.50342246 65.3193245 210.0625 67 C212.05801782 67.35919321 214.05798879 67.69496569 216.0625 68 C217.0525 68.33 218.0425 68.66 219.0625 69 C220.27395508 72.63436524 220.20219418 75.96141785 220.19189453 79.74438477 C220.19452301 80.92528183 220.19452301 80.92528183 220.19720459 82.1300354 C220.20160809 84.73384806 220.19869067 87.33759289 220.1953125 89.94140625 C220.1959859 91.74836744 220.19695623 93.55532855 220.19821167 95.36228943 C220.19968655 99.14933128 220.19754055 102.93634956 220.19287109 106.72338867 C220.18716986 111.58491419 220.19045664 116.44638456 220.19644356 121.30790806 C220.20005134 125.0387158 220.19890965 128.7695104 220.19631577 132.50031853 C220.19564731 134.29333439 220.19647209 136.08635144 220.19879532 137.87936592 C220.20132582 140.38127955 220.19747578 142.88310289 220.19189453 145.38500977 C220.19391876 146.1305159 220.19594299 146.87602203 220.19802856 147.64411926 C220.17676523 152.77146955 220.17676523 152.77146955 219.0625 155 C218.78943693 157.49377696 218.56609878 159.97218083 218.37890625 162.47265625 C218.31847641 163.22856552 218.25804657 163.98447479 218.19578552 164.76329041 C218.00158954 167.19606819 217.81276884 169.6292183 217.625 172.0625 C215.13947865 204.12474035 215.13947865 204.12474035 212.0625 218.5 C211.8975 219.30179688 211.7325 220.10359375 211.5625 220.9296875 C210.45051936 226.29846904 209.26402944 231.65063755 208.0625 237 C204.89877448 235.50201465 203.02425776 234.05445722 200.6875 231.4375 C194.91279698 225.4659321 187.48513759 220.71131879 180.0625 217 C180.71398628 206.05622586 182.21154459 195.30862845 183.83032227 184.47729492 C187.16702983 162.02967554 188.3748301 139.67833894 188.6875 117 C188.72583193 114.65233171 188.7648914 112.30467518 188.8046875 109.95703125 C188.89896275 104.30479471 188.9844469 98.65248269 189.0625 93 C188.36623505 93.01572556 187.66997009 93.03145111 186.9526062 93.0476532 C181.00057981 93.12469972 175.46374524 92.8111972 169.6328125 91.64453125 C168.88354492 91.50269409 168.13427734 91.36085693 167.36230469 91.21472168 C164.96848602 90.75804215 162.57801716 90.28613153 160.1875 89.8125 C158.52593566 89.49018583 156.86431413 89.1681663 155.20263672 88.84643555 C143.41301107 86.54522177 131.68437965 84.04650134 120.0625 81 C118.95479248 80.71108887 117.84708496 80.42217773 116.70581055 80.12451172 C79.86501885 70.41706508 43.79299734 58.19057005 9.58349609 41.28027344 C8.43574707 40.72114258 7.28799805 40.16201172 6.10546875 39.5859375 C5.06801514 39.06821777 4.03056152 38.55049805 2.96166992 38.01708984 C-1.02105733 36.61986528 -3.25952106 37.28258772 -7.04516602 38.90112305 C-8.10755493 39.45086792 -8.10755493 39.45086792 -9.19140625 40.01171875 C-10.02768555 40.43291992 -10.86396484 40.85412109 -11.72558594 41.28808594 C-13.0989209 41.9807959 -13.0989209 41.9807959 -14.5 42.6875 C-29.26471257 49.9458852 -44.60794402 55.69306062 -59.98486328 61.50244141 C-63.19421719 62.71537093 -66.39404289 63.95094388 -69.58984375 65.19921875 C-87.06645087 71.9520797 -105.29543058 76.44993182 -123.47265625 80.88671875 C-127.34202838 81.83670393 -131.168014 82.9082537 -135 84 C-145.44891242 86.82372141 -156.14633476 88.5323993 -166.79345703 90.43164062 C-169.5526168 90.93042335 -172.30639974 91.44871681 -175.05859375 91.984375 C-176.15892944 92.19791626 -176.15892944 92.19791626 -177.28149414 92.41577148 C-179.15422176 92.78158257 -181.02635803 93.15041754 -182.8984375 93.51953125 C-185.65391226 93.95516543 -188.158098 94.03613046 -190.9375 94 C-190.26602467 146.21184405 -187.46324911 198.25509811 -172.88525391 248.71044922 C-172.2321631 250.97725641 -171.60023979 253.25023348 -170.98583984 255.52783203 C-168.85928712 263.32092825 -166.18987249 270.6126089 -162.9375 278 C-162.10007978 279.9902622 -161.26415394 281.9811538 -160.4296875 283.97265625 C-154.77352141 297.2198511 -148.58429163 309.78936085 -140.9375 322 C-140.25042969 323.1034375 -139.56335938 324.206875 -138.85546875 325.34375 C-126.82131929 343.97094671 -111.79405192 361.84084629 -94.953125 376.26171875 C-92.8277691 378.09463227 -90.76124935 379.98400914 -88.6875 381.875 C-83.89832235 386.12661689 -78.85952474 389.97317135 -73.67871094 393.734375 C-72.48088242 394.60503443 -71.28639655 395.48030525 -70.09472656 396.359375 C-54.07760267 408.15549659 -36.98653598 418.02130418 -19.43737793 427.34262085 C-18.15587865 428.02549904 -16.87740117 428.71408149 -15.60217285 429.40859985 C-13.80782617 430.38231365 -12.00215615 431.33065719 -10.19140625 432.2734375 C-9.15314697 432.82435059 -8.1148877 433.37526367 -7.04516602 433.94287109 C-2.18241981 435.59702233 2.25409656 434.67683087 6.83203125 432.50390625 C7.48357178 432.19799561 8.1351123 431.89208496 8.80639648 431.5769043 C9.48903564 431.24215088 10.1716748 430.90739746 10.875 430.5625 C11.97533569 430.03233276 11.97533569 430.03233276 13.09790039 429.49145508 C31.12973206 420.6793374 49.17123163 410.62460327 65.09375 398.36328125 C67.0625 397 67.0625 397 69.0625 397 C66.48465154 394.35247996 64.14601902 392.05567935 61.0625 390 C56.39236111 390.26051115 53.67743523 391.63425698 50 394.4375 C46.75213343 396.8952063 43.86187487 398.55165885 40.0625 400 C40.07360306 399.42085846 40.08470612 398.84171692 40.09614563 398.24502563 C40.20739304 392.17734312 40.28243621 386.10995369 40.3371582 380.04150391 C40.36218909 377.78161843 40.39622438 375.52181298 40.43969727 373.26220703 C40.50085233 370.00012381 40.52882502 366.73911755 40.55078125 363.4765625 C40.57658768 362.47823395 40.6023941 361.4799054 40.62898254 360.45132446 C40.6318323 353.20541901 38.79534852 348.18577256 35.0625 342 C38.0625 343 38.0625 343 39.3515625 345.30078125 C39.79242187 346.29464844 40.23328125 347.28851562 40.6875 348.3125 C46.02951097 359.43179691 54.93606992 372.78828293 65.625 379.4375 C66.8315625 380.2109375 66.8315625 380.2109375 68.0625 381 C68.0625 381.99 68.0625 382.98 68.0625 384 C68.56523438 384.25007813 69.06796875 384.50015625 69.5859375 384.7578125 C71.59511194 385.76556876 73.59913848 386.78358386 75.6015625 387.8046875 C87.28437057 393.74269689 98.1460898 398.32763927 111.0625 401 C89.19474509 428.77795894 49.79364503 447.65715345 18.30859375 461.97412109 C16.03101786 463.01437912 13.76561069 464.07850488 11.5 465.14453125 C10.06309877 465.80598977 8.62562493 466.46620626 7.1875 467.125 C6.5392627 467.43284424 5.89102539 467.74068848 5.22314453 468.05786133 C1.33888589 469.79902741 -0.91073207 470.42577413 -4.9375 469 C-8.08216934 467.72986038 -11.16776516 466.35182217 -14.25 464.9375 C-15.13864746 464.53265381 -16.02729492 464.12780762 -16.94287109 463.71069336 C-52.51771307 447.39573044 -85.77461888 427.22785882 -114.9375 401 C-115.65292969 400.37609375 -116.36835937 399.7521875 -117.10546875 399.109375 C-128.63174295 388.95572399 -139.54244555 378.16966866 -148.9375 366 C-149.69933594 365.05511719 -150.46117187 364.11023438 -151.24609375 363.13671875 C-178.57311263 328.72653658 -196.9518411 287.94119438 -207.34912109 245.40136719 C-207.73798744 243.81427615 -208.13402693 242.22892363 -208.53759766 240.64550781 C-211.80781374 227.78037775 -214.05764446 214.78935575 -216.125 201.6875 C-216.25155975 200.8884726 -216.37811951 200.08944519 -216.5085144 199.26620483 C-217.36089715 193.85002425 -218.16663713 188.42835889 -218.9375 183 C-219.03562988 182.32291992 -219.13375977 181.64583984 -219.23486328 180.94824219 C-221.16082253 167.39667397 -221.59610734 153.79175446 -222.0625 140.125 C-222.10452545 138.95013031 -222.1465509 137.77526062 -222.18984985 136.56478882 C-223.94009784 87.53150984 -223.94009784 87.53150984 -221.9375 68 C-220.26048425 66.32298425 -218.07247642 66.53096896 -215.76953125 66.23828125 C-214.66383789 66.09205322 -213.55814453 65.9458252 -212.41894531 65.79516602 C-211.20819336 65.63588623 -209.99744141 65.47660645 -208.75 65.3125 C-194.54114394 63.36386211 -180.5435585 60.68468867 -166.50585938 57.74365234 C-163.07453187 57.02855768 -159.63984318 56.33319436 -156.203125 55.64453125 C-146.91937092 53.77256 -137.73860999 51.84086649 -128.66796875 49.08984375 C-124.6960211 47.92945276 -120.70253637 46.90499774 -116.69189453 45.88842773 C-100.88622565 41.87214896 -85.61756502 36.82710106 -70.40771484 30.94726562 C-67.54480656 29.84941189 -64.67244321 28.77786841 -61.80078125 27.703125 C-48.59406184 22.6993133 -35.76545489 17.22383149 -23.0625 11.0625 C-22.39483612 10.73976105 -21.72717224 10.41702209 -21.03927612 10.08450317 C-13.16725868 6.32010955 -13.16725868 6.32010955 -5.72216797 1.79467773 C-2.9375 0 -2.9375 0 0 0 Z " fill="#2B7993" transform="translate(765.9375,175)"/>
<path d="M0 0 C1.41270927 0.45011466 2.82977774 0.8866838 4.25 1.3125 C14.67195471 4.75704435 22.77177025 10.90669849 31 18 C31.98613281 18.77601563 32.97226562 19.55203125 33.98828125 20.3515625 C47.65813233 31.75588609 57.96885255 52.54130028 60 70 C61.77754721 93.16762985 58.94844196 115.3741458 44 134 C44.59167969 134.26208252 45.18335938 134.52416504 45.79296875 134.79418945 C48.11489578 136.06277326 49.52020265 137.36031399 51.3125 139.29296875 C52.21355469 140.2375293 52.21355469 140.2375293 53.1328125 141.20117188 C54.38346443 142.53162482 55.62822504 143.86763903 56.8671875 145.20898438 C57.46789062 145.83482422 58.06859375 146.46066406 58.6875 147.10546875 C59.22761719 147.68449951 59.76773438 148.26353027 60.32421875 148.86010742 C61.92873314 150.22454753 61.92873314 150.22454753 63.89453125 149.7434082 C65.37974337 149.21900295 66.84917307 148.64881656 68.3046875 148.046875 C72.13996605 147.9801745 73.46599367 149.69766739 76.16162109 152.27856445 C77.13349365 153.25442505 77.13349365 153.25442505 78.125 154.25 C78.81803223 154.92313232 79.51106445 155.59626465 80.22509766 156.28979492 C82.50025518 158.51008368 84.75140636 160.75283193 87 163 C88.54674183 164.53268648 90.09361794 166.06523748 91.640625 167.59765625 C96.44854556 172.37719827 101.22649737 177.18611729 106 182 C109.22617472 185.25299034 112.45582568 188.50247421 115.6875 191.75 C116.40534668 192.47614502 117.12319336 193.20229004 117.86279297 193.95043945 C123.16496142 199.27804541 128.71573702 204.23183548 134.4609375 209.07421875 C135.09257813 209.60660156 135.72421875 210.13898438 136.375 210.6875 C137.02210938 211.22761719 137.66921875 211.76773438 138.3359375 212.32421875 C141.30400967 215.31319284 142.31150257 218.1397617 142.4375 222.3125 C142.31926369 227.45577944 140.38975887 230.28250202 137 234 C136.236875 234.845625 135.47375 235.69125 134.6875 236.5625 C125.67647059 244.73529412 125.67647059 244.73529412 120.4375 245.5625 C113.39664495 244.41036008 108.99890691 241.59493712 104.09985352 236.53808594 C103.55572815 235.99293839 103.01160278 235.44779083 102.45098877 234.88612366 C100.66742773 233.09472583 98.89835772 231.28970126 97.12890625 229.484375 C95.88107748 228.22652931 94.63227636 226.96964754 93.3825531 225.71368408 C90.10046906 222.41071715 86.83013336 219.09636806 83.56262207 215.7789917 C78.34052625 210.48152049 73.09975421 205.20251066 67.86082268 199.92169952 C66.04314004 198.08648716 64.22985309 196.24702686 62.41737366 194.40667725 C61.28860959 193.26377487 60.15934896 192.12136266 59.02954102 190.97949219 C58.4986062 190.44233456 57.96767138 189.90517693 57.42064762 189.35174179 C53.91469724 185.83505018 50.28828071 182.54780369 46.39048767 179.4631958 C44.69198071 177.67587449 44.29599464 176.43110971 44 174 C44.9375 171.75 44.9375 171.75 46 170 C45.04738281 169.19175781 44.09476563 168.38351562 43.11328125 167.55078125 C41.84625894 166.47146595 40.57933719 165.39203259 39.3125 164.3125 C38.68666016 163.78205078 38.06082031 163.25160156 37.41601562 162.70507812 C33.78310882 159.60474405 30.32614076 156.4278965 27 153 C24.6166572 154.13382327 22.37531421 155.37481148 20.109375 156.734375 C-1.781444 169.8688664 -25.79347084 174.7785719 -51 169 C-65.41434014 165.35322952 -78.0769751 157.9862877 -89 148 C-89.85207031 147.24074219 -90.70414063 146.48148438 -91.58203125 145.69921875 C-107.81832529 130.46054647 -117.50447046 108.35781276 -118.52416992 86.15649414 C-118.88242017 64.24846479 -111.92803933 42.30917683 -97 26 C-96.13890625 25.04738281 -95.2778125 24.09476562 -94.390625 23.11328125 C-84.63648613 12.67655051 -73.32457624 5.25096229 -60 0 C-58.88238281 -0.44279297 -58.88238281 -0.44279297 -57.7421875 -0.89453125 C-40.35279256 -7.22078066 -16.89417631 -7.96895109 0 0 Z " fill="#2E9AA0" transform="translate(925,395)"/>
<path d="M0 0 C1.41270927 0.45011466 2.82977774 0.8866838 4.25 1.3125 C14.67195471 4.75704435 22.77177025 10.90669849 31 18 C31.98613281 18.77601563 32.97226562 19.55203125 33.98828125 20.3515625 C47.65813233 31.75588609 57.96885255 52.54130028 60 70 C61.77754721 93.16762985 58.94844196 115.3741458 44 134 C44.59167969 134.26208252 45.18335938 134.52416504 45.79296875 134.79418945 C48.11489578 136.06277326 49.52020265 137.36031399 51.3125 139.29296875 C52.21355469 140.2375293 52.21355469 140.2375293 53.1328125 141.20117188 C54.38346443 142.53162482 55.62822504 143.86763903 56.8671875 145.20898438 C57.46789062 145.83482422 58.06859375 146.46066406 58.6875 147.10546875 C59.22761719 147.68449951 59.76773438 148.26353027 60.32421875 148.86010742 C61.92873314 150.22454753 61.92873314 150.22454753 63.89453125 149.7434082 C65.37974337 149.21900295 66.84917307 148.64881656 68.3046875 148.046875 C72.13996605 147.9801745 73.46599367 149.69766739 76.16162109 152.27856445 C77.13349365 153.25442505 77.13349365 153.25442505 78.125 154.25 C78.81803223 154.92313232 79.51106445 155.59626465 80.22509766 156.28979492 C82.50025518 158.51008368 84.75140636 160.75283193 87 163 C88.54674183 164.53268648 90.09361794 166.06523748 91.640625 167.59765625 C96.44854556 172.37719827 101.22649737 177.18611729 106 182 C109.22617472 185.25299034 112.45582568 188.50247421 115.6875 191.75 C116.40534668 192.47614502 117.12319336 193.20229004 117.86279297 193.95043945 C123.16496142 199.27804541 128.71573702 204.23183548 134.4609375 209.07421875 C135.09257813 209.60660156 135.72421875 210.13898438 136.375 210.6875 C137.02210938 211.22761719 137.66921875 211.76773438 138.3359375 212.32421875 C141.30400967 215.31319284 142.31150257 218.1397617 142.4375 222.3125 C142.31926369 227.45577944 140.38975887 230.28250202 137 234 C136.236875 234.845625 135.47375 235.69125 134.6875 236.5625 C125.67647059 244.73529412 125.67647059 244.73529412 120.4375 245.5625 C113.39664495 244.41036008 108.99890691 241.59493712 104.09985352 236.53808594 C103.55572815 235.99293839 103.01160278 235.44779083 102.45098877 234.88612366 C100.66742773 233.09472583 98.89835772 231.28970126 97.12890625 229.484375 C95.88107748 228.22652931 94.63227636 226.96964754 93.3825531 225.71368408 C90.10046906 222.41071715 86.83013336 219.09636806 83.56262207 215.7789917 C78.34052625 210.48152049 73.09975421 205.20251066 67.86082268 199.92169952 C66.04314004 198.08648716 64.22985309 196.24702686 62.41737366 194.40667725 C61.28860959 193.26377487 60.15934896 192.12136266 59.02954102 190.97949219 C58.4986062 190.44233456 57.96767138 189.90517693 57.42064762 189.35174179 C53.91469724 185.83505018 50.28828071 182.54780369 46.39048767 179.4631958 C44.69198071 177.67587449 44.29599464 176.43110971 44 174 C44.9375 171.75 44.9375 171.75 46 170 C45.04738281 169.19175781 44.09476563 168.38351562 43.11328125 167.55078125 C41.84625894 166.47146595 40.57933719 165.39203259 39.3125 164.3125 C38.68666016 163.78205078 38.06082031 163.25160156 37.41601562 162.70507812 C33.78310882 159.60474405 30.32614076 156.4278965 27 153 C24.6166572 154.13382327 22.37531421 155.37481148 20.109375 156.734375 C-1.781444 169.8688664 -25.79347084 174.7785719 -51 169 C-65.41434014 165.35322952 -78.0769751 157.9862877 -89 148 C-89.85207031 147.24074219 -90.70414063 146.48148438 -91.58203125 145.69921875 C-107.81832529 130.46054647 -117.50447046 108.35781276 -118.52416992 86.15649414 C-118.88242017 64.24846479 -111.92803933 42.30917683 -97 26 C-96.13890625 25.04738281 -95.2778125 24.09476562 -94.390625 23.11328125 C-84.63648613 12.67655051 -73.32457624 5.25096229 -60 0 C-58.88238281 -0.44279297 -58.88238281 -0.44279297 -57.7421875 -0.89453125 C-40.35279256 -7.22078066 -16.89417631 -7.96895109 0 0 Z M-82.390625 35.453125 C-96.42029627 51.39159509 -101.04356482 69.92225704 -100.17480469 90.72949219 C-98.75904335 109.11857106 -88.62924989 125.636137 -75.046875 137.6015625 C-58.71787983 150.38263464 -40.55587789 155.8741249 -20 154 C0.15489885 150.97443782 17.90067067 139.708398 30.1875 123.65625 C33.36267131 119.0029817 35.78703945 114.17230424 38 109 C38.41507813 108.08476562 38.83015625 107.16953125 39.2578125 106.2265625 C42.14920246 98.6846852 42.38209673 91.45034563 42.4375 83.4375 C42.44765137 82.39698486 42.45780273 81.35646973 42.46826172 80.28442383 C42.26471609 62.07855722 35.12695721 47.37242849 23 34 C22.45988281 33.35546875 21.91976562 32.7109375 21.36328125 32.046875 C11.9650034 21.53595468 -5.6723928 13.70737258 -19.58032227 12.83886719 C-44.73283066 12.45283779 -64.29014124 16.87942598 -82.390625 35.453125 Z " fill="#2FAFA5" transform="translate(925,395)"/>
<path d="M0 0 C13.86 0 27.72 0 42 0 C42.32908004 6.97238333 42.63060688 13.93588435 42.86669922 20.91064453 C42.95452561 23.27552291 43.05735241 25.639899 43.17626953 28.00341797 C43.83620039 41.33176517 44.22318676 52.24834257 36.93920898 63.80297852 C27.40968486 79.51355618 29.36311513 105.18510058 33.06640625 122.42578125 C34.23940852 126.91656399 35.62664938 131.289591 37.23046875 135.64453125 C38 138 38 138 38 141 C38.64831787 141.99435059 39.29663574 142.98870117 39.96459961 144.01318359 C42.78214891 148.76540503 42.59386494 153.3843563 42.56640625 158.7890625 C42.57570412 160.32123917 42.57570412 160.32123917 42.58518982 161.8843689 C42.5922668 164.03423106 42.58915125 166.18414828 42.57641602 168.33398438 C42.5625122 171.62211533 42.59669994 174.90741982 42.63476562 178.1953125 C42.63571654 180.2890632 42.6338595 182.38281745 42.62890625 184.4765625 C42.64216446 185.45686432 42.65542267 186.43716614 42.66908264 187.44717407 C42.60503539 192.13839723 42.5436082 194.29473362 39.60522461 198.10693359 C37.26211298 199.80953762 35.84571196 200.68380978 33 201 C33 201.66 33 202.32 33 203 C30.7965194 204.1560727 28.58796844 205.29984721 26.375 206.4375 C25.75753906 206.76298828 25.14007812 207.08847656 24.50390625 207.42382812 C20.62689603 209.40314387 17.2712099 210.34826225 13 211 C10.28925345 212.1524581 10.28925345 212.1524581 7.75 213.5625 C3.19263456 216 3.19263456 216 1 216 C-0.16725537 211.82160552 -0.13569 207.7800389 -0.12025452 203.47064209 C-0.12153615 202.16694589 -0.12153615 202.16694589 -0.12284368 200.83691239 C-0.12449307 197.91957439 -0.11898592 195.00229366 -0.11352539 192.08496094 C-0.11324338 189.99572755 -0.11340153 187.90649407 -0.1139679 185.81726074 C-0.11425531 180.13998407 -0.10836751 174.46272843 -0.10139394 168.78545666 C-0.0951512 162.85438836 -0.09455587 156.92331961 -0.09336853 150.99224854 C-0.09025794 139.75843226 -0.0820482 128.52462568 -0.07201904 117.29081368 C-0.06084948 104.50257375 -0.05534532 91.71433336 -0.05032361 78.92608976 C-0.03986537 52.61738655 -0.02152325 26.30869665 0 0 Z " fill="#ABBAD2" transform="translate(765,379)"/>
<path d="M0 0 C13.86 0 27.72 0 42 0 C42.02302889 14.14009014 42.04118136 28.28016687 42.05181217 42.42027187 C42.05685835 48.9933223 42.06380167 55.56636127 42.07543945 62.1394043 C42.13916943 99.10750564 41.7930413 136.04087493 41 173 C38.47012828 171.76145441 35.94335481 170.51716495 33.41796875 169.26953125 C32.35733215 168.75138855 32.35733215 168.75138855 31.27526855 168.22277832 C25.7136965 165.46678504 20.64547682 162.3143141 15.55078125 158.76171875 C10.72409351 155.40498996 10.72409351 155.40498996 5.3125 153.25 C3 152 3 152 1.88134766 149.00292969 C0.75175455 144.58376022 0.64724142 140.2450643 0.5859375 135.703125 C0.56652603 134.76081024 0.54711456 133.81849548 0.52711487 132.84762573 C0.46564573 129.6485099 0.41971172 126.44939141 0.375 123.25 C0.35631866 122.13558533 0.33763733 121.02117065 0.31838989 119.87298584 C-0.34753072 79.9226227 -0.07800105 39.95387275 0 0 Z " fill="#97A8C5" transform="translate(706,414)"/>
<path d="M0 0 C14.24002675 12.24948537 24.7529354 28.02925647 26.59277344 47.03442383 C26.72802534 50.15484326 26.76117523 53.25188492 26.73046875 56.375 C26.72217041 57.47175049 26.71387207 58.56850098 26.70532227 59.69848633 C26.53556838 67.82915383 25.67077512 74.46599397 22.29296875 81.9375 C21.59880859 83.63326172 21.59880859 83.63326172 20.890625 85.36328125 C12.77343487 103.52276528 -2.41866752 115.68560856 -20.70703125 122.9375 C-24.00957797 124.08777478 -27.31026784 125.1062498 -30.70703125 125.9375 C-31.45339844 126.12054687 -32.19976563 126.30359375 -32.96875 126.4921875 C-50.81824375 129.39495824 -69.32700765 125.53366058 -84.19921875 115.20703125 C-86.42523818 113.50941037 -88.56901705 111.74403913 -90.70703125 109.9375 C-91.61195313 109.24914062 -91.61195313 109.24914062 -92.53515625 108.546875 C-104.2403739 99.37251522 -112.42589576 83.90393499 -115.27734375 69.48828125 C-117.78780396 48.74275094 -114.16001835 30.02590483 -101.70703125 12.9375 C-77.36220439 -17.98088346 -31.42572823 -23.94341198 0 0 Z M-86.70703125 13.9375 C-87.55265625 14.741875 -88.39828125 15.54625 -89.26953125 16.375 C-100.38240082 28.05776031 -105.28308825 42.10148486 -105.0234375 58.11328125 C-103.55069102 75.91351339 -96.10330458 90.82607539 -82.64453125 102.625 C-69.57012724 112.89514465 -55.17135846 117.01823532 -38.70703125 115.9375 C-22.80872281 113.46485908 -6.85815076 105.69960458 3.29296875 92.9375 C12.91508325 78.44419003 16.55668045 64.39616322 15.29296875 46.9375 C14.62938966 43.7503829 13.54033686 40.93442338 12.29296875 37.9375 C12.02613281 37.06738281 11.75929688 36.19726562 11.484375 35.30078125 C8.02395922 24.27358962 0.10819657 15.28088548 -8.70703125 7.9375 C-11.33934209 6.72687595 -13.95830678 5.85374149 -16.70703125 4.9375 C-16.70703125 4.2775 -16.70703125 3.6175 -16.70703125 2.9375 C-40.84506742 -5.00523769 -68.38708619 -7.55720827 -86.70703125 13.9375 Z " fill="#F8FBFB" transform="translate(940.70703125,422.0625)"/>
<path d="M0 0 C4.29 0 8.58 0 13 0 C13 2.97 13 5.94 13 9 C14.27875 9.226875 15.5575 9.45375 16.875 9.6875 C26.39000921 11.83362984 32.96159851 15.6291884 38.18359375 23.8671875 C41 28.56444637 41 28.56444637 41 31 C38.95928485 31.33910994 36.91737379 31.67102704 34.875 32 C33.16957031 32.2784375 33.16957031 32.2784375 31.4296875 32.5625 C28.17480907 32.97770089 25.26719635 33.32718045 22 33 C20.20703125 31.50390625 20.20703125 31.50390625 18.8125 29.5625 C16.57805128 26.46855683 16.57805128 26.46855683 13 25 C12.67 31.27 12.34 37.54 12 44 C14.97 44.33 17.94 44.66 21 45 C29.35544213 47.25666373 35.10259723 51.35967344 40.4375 58.0625 C43.45980855 63.96319765 42.88696047 71.31911405 41.375 77.59375 C38.72763636 84.49580521 33.90430273 89.17799206 27.24609375 92.28515625 C22.57849025 94.05694043 17.98434284 95.46115212 13 96 C13 99.3 13 102.6 13 106 C8.71 106 4.42 106 0 106 C0 102.37 0 98.74 0 95 C-1.2375 95.12375 -2.475 95.2475 -3.75 95.375 C-11.82633125 95.36226131 -19.26864271 90.97663303 -25.0625 85.5625 C-29.05801324 81.15769028 -31 77.04732065 -31 71 C-24.78160713 69.86938311 -18.27629353 69.01045299 -12 70 C-9.5 72.8125 -9.5 72.8125 -8 76 C-5.03504633 78.67802267 -2.90615423 79.43753831 1 81 C1 74.07 1 67.14 1 60 C-2.3 59.67 -5.6 59.34 -9 59 C-16.9599206 56.32198248 -23.34930642 52.0588197 -28 45 C-30.10296752 38.69109744 -30.29205377 30.50629859 -27.9765625 24.22265625 C-22.93342252 16.07283058 -15.27181156 11.96987957 -6.26171875 9.4453125 C-4 9 -4 9 0 9 C0 6.03 0 3.06 0 0 Z " fill="#F8FBFB" transform="translate(758,258)"/>
<path d="M0 0 C2.21919552 1.14539123 4.07216907 2.33452595 5.9375 4 C5.9375 4.66 5.9375 5.32 5.9375 6 C6.494375 6.226875 7.05125 6.45375 7.625 6.6875 C10.57937072 8.36430501 12.56852343 10.57324352 14.9375 13 C16.58614545 14.35555293 18.24753995 15.69631653 19.9375 17 C20.56398438 16.3503125 21.19046875 15.700625 21.8359375 15.03125 C23.06183594 13.77828125 23.06183594 13.77828125 24.3125 12.5 C25.12460937 11.6646875 25.93671875 10.829375 26.7734375 9.96875 C28.9375 8 28.9375 8 30.9375 8 C30.9375 7.01 30.9375 6.02 30.9375 5 C32.9921875 4.109375 32.9921875 4.109375 35.9375 4 C38.6479817 5.71691303 40.8060456 7.98428634 43.0625 10.25 C43.75553223 10.92313232 44.44856445 11.59626465 45.16259766 12.28979492 C47.43775518 14.51008368 49.68890636 16.75283193 51.9375 19 C53.48424183 20.53268648 55.03111794 22.06523748 56.578125 23.59765625 C61.38604556 28.37719827 66.16399737 33.18611729 70.9375 38 C74.16367472 41.25299034 77.39332568 44.50247421 80.625 47.75 C81.34284668 48.47614502 82.06069336 49.20229004 82.80029297 49.95043945 C88.10246142 55.27804541 93.65323702 60.23183548 99.3984375 65.07421875 C100.34589844 65.87279297 100.34589844 65.87279297 101.3125 66.6875 C102.28316406 67.49767578 102.28316406 67.49767578 103.2734375 68.32421875 C106.24150967 71.31319284 107.24900257 74.1397617 107.375 78.3125 C107.25676369 83.45577944 105.32725887 86.28250202 101.9375 90 C100.7928125 91.2684375 100.7928125 91.2684375 99.625 92.5625 C90.61397059 100.73529412 90.61397059 100.73529412 85.375 101.5625 C78.33414495 100.41036008 73.93640691 97.59493712 69.03735352 92.53808594 C68.22116547 91.72036461 68.22116547 91.72036461 67.38848877 90.88612366 C65.60492773 89.09472583 63.83585772 87.28970126 62.06640625 85.484375 C60.81857748 84.22652931 59.56977636 82.96964754 58.3200531 81.71368408 C55.03796906 78.41071715 51.76763336 75.09636806 48.50012207 71.7789917 C43.27802625 66.48152049 38.03725421 61.20251066 32.79832268 55.92169952 C30.98064004 54.08648716 29.16735309 52.24702686 27.35487366 50.40667725 C26.22610959 49.26377487 25.09684896 48.12136266 23.96704102 46.97949219 C23.4361062 46.44233456 22.90517138 45.90517693 22.35814762 45.35174179 C18.85219724 41.83505018 15.22578071 38.54780369 11.32798767 35.4631958 C9.62948071 33.67587449 9.23349464 32.43110971 8.9375 30 C9.875 27.75 9.875 27.75 10.9375 26 C9.98488281 25.19175781 9.03226563 24.38351562 8.05078125 23.55078125 C6.78375894 22.47146595 5.51683719 21.39203259 4.25 20.3125 C3.62416016 19.78205078 2.99832031 19.25160156 2.35351562 18.70507812 C-1.27556733 15.60800733 -4.83080643 12.51485149 -8.0625 9 C-8.26258333 5.79866667 -6.79733699 4.67750445 -4.75 2.1875 C-2.0625 0 -2.0625 0 0 0 Z " fill="#0C5A8A" transform="translate(960.0625,539)"/>
<path d="M0 0 C1.04220703 -0.01611328 2.08441406 -0.03222656 3.15820312 -0.04882812 C12.23294621 -0.05452476 19.09149783 2.17892936 27.25 6 C28.18972656 6.43699219 29.12945313 6.87398437 30.09765625 7.32421875 C31.13212891 7.81341797 31.13212891 7.81341797 32.1875 8.3125 C31.60926904 12.37475548 30.29632263 15.16012346 28.125 18.625 C27.57714844 19.50800781 27.02929688 20.39101563 26.46484375 21.30078125 C26.04332031 21.96464844 25.62179687 22.62851562 25.1875 23.3125 C24.50945312 22.97476563 23.83140625 22.63703125 23.1328125 22.2890625 C12.68198179 17.28076967 1.81260063 14.14243315 -9.625 17.5625 C-13.16677599 18.90614579 -15.75122743 19.99653977 -17.8125 23.3125 C-18.51721798 27.75130804 -18.28805478 31.4757881 -15.8125 35.3125 C-10.2811451 39.18571419 -3.74157788 39.88540426 2.78125 40.76171875 C14.2528659 42.61664747 25.42894382 46.32780536 32.99609375 55.46875 C37.33070162 62.17673332 36.9367676 69.63842235 36.1875 77.3125 C34.0978981 84.66984249 29.62292291 90.23889897 23.1875 94.3125 C8.14302737 101.14710807 -9.97019769 101.8909213 -25.62207031 96.52416992 C-30.8543831 94.53252882 -35.46701313 91.82510189 -39.8125 88.3125 C-38.32079734 83.3401578 -36.20792583 78.89404261 -33.8125 74.3125 C-30.23542153 75.41313953 -26.88019689 76.72321445 -23.5 78.3125 C-13.50344871 82.74805587 -1.56559607 84.29680163 9.1484375 81.5546875 C13.43686089 79.81064571 13.43686089 79.81064571 16.38671875 76.38671875 C17.63243386 73.16001279 17.60775259 70.73455682 17.1875 67.3125 C12.52731177 61.09891569 6.07959941 59.23634016 -1.27001953 58.1862793 C-2.02653809 58.08355713 -2.78305664 57.98083496 -3.5625 57.875 C-14.96629282 56.12530383 -25.66371957 53.58605733 -33.4140625 44.41796875 C-37.77733589 37.84868283 -37.73326769 30.95660915 -36.8125 23.3125 C-35.1425293 16.08250921 -31.71513948 10.80233733 -25.8125 6.3125 C-23.23025105 4.71919746 -20.63364652 3.4251391 -17.8125 2.3125 C-16.98492188 1.95414063 -16.15734375 1.59578125 -15.3046875 1.2265625 C-10.20175407 -0.10910464 -5.25265352 -0.01606316 0 0 Z " fill="#19829D" transform="translate(693.8125,708.6875)"/>
<path d="M0 0 C4.61662426 3.71441495 7.69459261 7.68347371 8.87890625 13.57421875 C8.96398958 15.28443587 8.99667007 16.99763393 8.99243164 18.70996094 C8.99235611 19.73071716 8.99228058 20.75147339 8.99220276 21.80316162 C8.98704147 22.89807922 8.98188019 23.99299683 8.9765625 25.12109375 C8.97514755 26.24743225 8.9737326 27.37377075 8.97227478 28.53424072 C8.96667824 32.1309271 8.95412635 35.72755119 8.94140625 39.32421875 C8.9363908 41.76301993 8.93182797 44.20182209 8.92773438 46.640625 C8.91670994 52.61851358 8.89944765 58.5963556 8.87890625 64.57421875 C3.59890625 64.57421875 -1.68109375 64.57421875 -7.12109375 64.57421875 C-7.45109375 62.92421875 -7.78109375 61.27421875 -8.12109375 59.57421875 C-8.91773438 60.08082031 -8.91773438 60.08082031 -9.73046875 60.59765625 C-10.436875 61.04367187 -11.14328125 61.4896875 -11.87109375 61.94921875 C-12.91523437 62.61050781 -12.91523437 62.61050781 -13.98046875 63.28515625 C-14.686875 63.71054687 -15.39328125 64.1359375 -16.12109375 64.57421875 C-16.71148438 64.94933594 -17.301875 65.32445312 -17.91015625 65.7109375 C-24.12422495 68.13727881 -32.88947702 67.52373539 -39.21875 65.6640625 C-45.24089545 62.83919488 -49.35006909 59.34397124 -52.21484375 53.24609375 C-54.11555974 47.64225868 -54.30921607 41.4877393 -52.05859375 35.96875 C-47.92100852 29.25641745 -42.67839938 25.38733417 -35.08203125 23.453125 C-29.57277404 22.3005773 -24.16463862 22.35275471 -18.55859375 22.44921875 C-17.54990234 22.45824219 -16.54121094 22.46726562 -15.50195312 22.4765625 C-13.04140918 22.49988519 -10.58138479 22.53261112 -8.12109375 22.57421875 C-8.24742187 21.30449219 -8.37375 20.03476562 -8.50390625 18.7265625 C-8.57496582 18.01234131 -8.64602539 17.29812012 -8.71923828 16.56225586 C-9.31662272 13.60690868 -10.7405241 12.32463761 -13.12109375 10.57421875 C-20.8164231 8.00910897 -29.38498805 9.15577032 -36.90234375 11.8203125 C-39.28713139 12.63063647 -41.64523084 13.12525065 -44.12109375 13.57421875 C-44.82016317 11.97505994 -45.50498843 10.3696683 -46.18359375 8.76171875 C-46.56644531 7.86839844 -46.94929687 6.97507812 -47.34375 6.0546875 C-48.12109375 3.57421875 -48.12109375 3.57421875 -47.12109375 0.57421875 C-44.35546875 -0.77734375 -44.35546875 -0.77734375 -40.87109375 -2.05078125 C-39.7315625 -2.47617187 -38.59203125 -2.9015625 -37.41796875 -3.33984375 C-25.34823477 -7.31541963 -10.79049368 -7.25327844 0 0 Z " fill="#1D8CA1" transform="translate(792.12109375,741.42578125)"/>
<path d="M0 0 C6.34874696 3.94060156 9.85555459 9.55410934 11.71875 16.6875 C11.98939499 20.53034522 11.95146553 24.36024961 11.9140625 28.2109375 C11.9112326 29.31225006 11.90840271 30.41356262 11.90548706 31.54824829 C11.89432478 35.05311108 11.86922711 38.55771492 11.84375 42.0625 C11.83371511 44.44400672 11.82459015 46.82551745 11.81640625 49.20703125 C11.79439832 55.03395339 11.75989537 60.86068284 11.71875 66.6875 C6.43875 66.6875 1.15875 66.6875 -4.28125 66.6875 C-4.28125 64.7075 -4.28125 62.7275 -4.28125 60.6875 C-4.87292969 61.09742188 -5.46460938 61.50734375 -6.07421875 61.9296875 C-6.86441406 62.46851563 -7.65460937 63.00734375 -8.46875 63.5625 C-9.24605469 64.09617187 -10.02335938 64.62984375 -10.82421875 65.1796875 C-17.95443365 69.55530427 -25.16312206 69.49514965 -33.28125 68.6875 C-39.90245147 66.69686782 -44.46853899 63.40656651 -48.28125 57.6875 C-51.08774527 51.77594614 -51.59348668 44.81060731 -49.59375 38.52734375 C-46.26457873 32.21578988 -41.01343125 28.64277638 -34.50390625 26.265625 C-27.97675356 24.56787703 -21.5322739 24.56240042 -14.84375 24.625 C-13.92142578 24.62951172 -12.99910156 24.63402344 -12.04882812 24.63867188 C-9.79289952 24.65036062 -7.53711033 24.66674545 -5.28125 24.6875 C-5.5653438 23.22741181 -5.86040622 21.76945461 -6.16015625 20.3125 C-6.32330322 19.50039063 -6.4864502 18.68828125 -6.65454102 17.8515625 C-7.1490782 15.51141671 -7.1490782 15.51141671 -9.21875 13.6875 C-16.44091751 10.18584302 -25.31047145 10.82690163 -32.84375 13.125 C-34.32432134 13.64182676 -35.80362664 14.16230422 -37.28125 14.6875 C-38.61060281 15.0363696 -39.94290046 15.37491496 -41.28125 15.6875 C-42.14752399 14.08983897 -42.99891465 12.48410056 -43.84375 10.875 C-44.31941406 9.98167969 -44.79507813 9.08835937 -45.28515625 8.16796875 C-46.28125 5.6875 -46.28125 5.6875 -45.28125 2.6875 C-43.2421875 1.58984375 -43.2421875 1.58984375 -40.65625 0.625 C-39.81835938 0.30402344 -38.98046875 -0.01695312 -38.1171875 -0.34765625 C-25.60161889 -4.60570783 -12.33969965 -5.48431096 0 0 Z " fill="#2297A5" transform="translate(896.28125,739.3125)"/>
<path d="M0 0 C6.22853794 4.81906276 9.07792686 11.5659109 11.9375 18.71484375 C11.9375 24.32484375 11.9375 29.93484375 11.9375 35.71484375 C-4.2325 35.71484375 -20.4025 35.71484375 -37.0625 35.71484375 C-33.76060762 44.04947241 -33.76060762 44.04947241 -28.0625 49.71484375 C-18.73239373 53.03572903 -10.61311702 52.39067779 -1.5078125 48.6875 C0.63782716 47.83404269 2.68723067 47.21199628 4.9375 46.71484375 C5.64179659 48.10227781 6.32527598 49.5002901 7 50.90234375 C7.38285156 51.67964844 7.76570313 52.45695313 8.16015625 53.2578125 C9.10756413 56.25238315 9.07318117 57.78752764 7.9375 60.71484375 C4.87695058 62.68958421 1.39706532 63.61245656 -2.0625 64.71484375 C-3.25875 65.12734375 -4.455 65.53984375 -5.6875 65.96484375 C-16.13863522 68.32272182 -28.91438232 67.95743158 -38.234375 62.42578125 C-40.3115677 60.96549917 -42.18471004 59.42266134 -44.0625 57.71484375 C-44.619375 57.21210937 -45.17625 56.709375 -45.75 56.19140625 C-52.45421491 49.31958596 -54.28301426 40.42966471 -54.5 31.08984375 C-54.17760626 20.56906153 -51.58339508 11.50306639 -44.20703125 3.76953125 C-32.07171467 -7.45035526 -14.07322549 -8.7691121 0 0 Z " fill="#113B7F" transform="translate(484.0625,741.28515625)"/>
<path d="M0 0 C0.33 11.88 0.66 23.76 1 36 C3.31 34.02 5.62 32.04 8 30 C14.51449336 26.01153468 21.53061995 26.13591154 29 27 C35.61544569 28.91289996 39.90128315 32.2585026 43.84375 37.83984375 C47.35879518 44.40680315 47.26455442 50.46692245 47.1953125 57.7421875 C47.1924826 58.86569611 47.18965271 59.98920471 47.18673706 61.14675903 C47.17557303 64.72294927 47.15047501 68.2988859 47.125 71.875 C47.11496533 74.30468387 47.10584033 76.73437169 47.09765625 79.1640625 C47.075646 85.1094722 47.0411418 91.05469315 47 97 C41.39 97 35.78 97 30 97 C29.9906543 95.63794434 29.98130859 94.27588867 29.97167969 92.87255859 C29.93173078 87.80679935 29.86595757 82.74164427 29.79248047 77.67626953 C29.7642994 75.48624447 29.74307066 73.29611823 29.72900391 71.10595703 C29.70753523 67.95292473 29.66086325 64.80110515 29.609375 61.6484375 C29.60814636 60.67321136 29.60691772 59.69798523 29.60565186 58.69320679 C29.48033138 52.84301927 28.87990908 49.46649078 25 45 C20.98689374 42.54754617 16.59296383 42.42249571 12 43 C6.65259586 44.95385921 3.54381857 47.91236287 1 53 C0.88252522 54.41882881 0.82314572 55.84271414 0.79467773 57.26611328 C0.77473251 58.14687531 0.75478729 59.02763733 0.73423767 59.93508911 C0.70916893 61.36327469 0.70916893 61.36327469 0.68359375 62.8203125 C0.66281265 63.79410858 0.64203156 64.76790466 0.62062073 65.77120972 C0.55511402 68.88906647 0.49623503 72.00700903 0.4375 75.125 C0.39431585 77.23568604 0.3507016 79.34636333 0.30664062 81.45703125 C0.19943147 86.63793236 0.09816717 91.81891999 0 97 C-5.61 97 -11.22 97 -17 97 C-17 65.32 -17 33.64 -17 1 C-4 0 -4 0 0 0 Z " fill="#124885" transform="translate(592,709)"/>
<path d="M0 0 C0 18.81 0 37.62 0 57 C0.66 57 1.32 57 2 57 C2.22743896 56.44586426 2.45487793 55.89172852 2.68920898 55.32080078 C4.38067433 52.32600295 6.51782362 50.27633764 8.97265625 47.8671875 C9.45576767 47.38927765 9.93887909 46.9113678 10.43663025 46.41897583 C11.97389041 44.89946386 13.51769326 43.3868361 15.0625 41.875 C16.60997477 40.35515441 18.15595926 38.83386581 19.69908142 37.30960083 C21.09570801 35.93081258 22.49708323 34.55683935 23.89868164 33.18310547 C26.03259545 31.18319548 26.03259545 31.18319548 27 29 C33.93 29 40.86 29 48 29 C41.2425107 36.88373752 41.2425107 36.88373752 38.34375 39.97265625 C37.71339844 40.64490234 37.08304688 41.31714844 36.43359375 42.00976562 C35.79550781 42.68716797 35.15742187 43.36457031 34.5 44.0625 C33.86191406 44.74376953 33.22382812 45.42503906 32.56640625 46.12695312 C31.93605469 46.79791016 31.30570313 47.46886719 30.65625 48.16015625 C29.74166016 49.13686279 29.74166016 49.13686279 28.80859375 50.13330078 C27.62662612 51.35324199 26.41081071 52.54149748 25.16015625 53.69091797 C23.27061103 55.37815983 23.27061103 55.37815983 21 58 C21.44534162 62.51576407 24.599318 65.31928736 27.5 68.5625 C28.59869965 69.8154921 29.69634576 71.06940875 30.79296875 72.32421875 C31.33743652 72.94474121 31.8819043 73.56526367 32.44287109 74.20458984 C35.36480068 77.57365071 38.14747932 81.05343248 40.953125 84.51953125 C43.47520097 87.57586377 46.10756563 90.52095027 48.78515625 93.44140625 C50 95 50 95 50 97 C32.660359 99.04038388 32.660359 99.04038388 27.08691406 95.93359375 C23.80368073 93.0828457 21.49687497 89.56244471 19.21484375 85.89160156 C17.5347892 83.27563238 15.62376603 80.87252619 13.69604492 78.4362793 C11.75806807 75.98670665 9.88121127 73.49331906 8 71 C5.53199953 72.15173355 3.95216435 73.04783565 2 75 C1.62948007 77.3245339 1.62948007 77.3245339 1.5859375 80.0078125 C1.54726562 80.99394531 1.50859375 81.98007812 1.46875 82.99609375 C1.4378125 84.02863281 1.406875 85.06117188 1.375 86.125 C1.33632812 87.16527344 1.29765625 88.20554687 1.2578125 89.27734375 C1.16335671 91.85126402 1.08058229 94.42560805 1 97 C-4.94 97 -10.88 97 -17 97 C-17 65.32 -17 33.64 -17 1 C-4 0 -4 0 0 0 Z " fill="#2AA8A7" transform="translate(1122,709)"/>
<path d="M0 0 C13.53 0 27.06 0 41 0 C41 29.37 41 58.74 41 89 C37 87 37 87 34 85 C34 84.34 34 83.68 34 83 C33.45859375 82.773125 32.9171875 82.54625 32.359375 82.3125 C29.25767128 80.58704892 26.87299899 78.38706787 24.25 76 C23.74339844 75.54882812 23.23679687 75.09765625 22.71484375 74.6328125 C21.43454183 73.46639188 20.21208271 72.23716029 19 71 C19 70.34 19 69.68 19 69 C18.40832031 68.74476563 17.81664062 68.48953125 17.20703125 68.2265625 C14.77407542 66.87444191 13.46504943 65.50466543 11.6875 63.375 C8.63885151 59.75225536 5.49635335 56.24110374 2.28515625 52.76171875 C1 51 1 51 1 48 C0.34 47.67 -0.32 47.34 -1 47 C-0.67 31.49 -0.34 15.98 0 0 Z " fill="#D8DEE8" transform="translate(648,461)"/>
<path d="M0 0 C1.34808876 -0.00067549 2.6961774 -0.00164756 4.04426575 -0.00289917 C6.8401508 -0.00435903 9.63600352 -0.00227367 12.43188477 0.00244141 C16.02091824 0.00819899 19.6098779 0.00481137 23.19890881 -0.00113106 C25.96888291 -0.0047315 28.73883924 -0.00360154 31.50881386 -0.00100327 C33.47708306 -0.00001155 35.44535296 -0.00304906 37.41362 -0.00613403 C38.59607803 -0.00298187 39.77853607 0.00017029 40.99682617 0.00341797 C42.04206955 0.00421356 43.08731293 0.00500916 44.16423035 0.00582886 C46.51953125 0.1328125 46.51953125 0.1328125 47.51953125 1.1328125 C49.16649748 1.22105364 50.81725027 1.23972325 52.46655273 1.23046875 C53.52112167 1.22716553 54.57569061 1.2238623 55.66221619 1.22045898 C56.81009109 1.21216064 57.957966 1.2038623 59.140625 1.1953125 C60.89597313 1.18963257 60.89597313 1.18963257 62.68678284 1.18383789 C67.71774451 1.16740663 72.7486267 1.13929561 77.77954102 1.11230469 C81.44156524 1.09429667 85.1035765 1.08215243 88.765625 1.0703125 C90.48440102 1.05786499 90.48440102 1.05786499 92.23789978 1.04516602 C93.29562088 1.04186279 94.35334198 1.03855957 95.44311523 1.03515625 C96.84423805 1.02730103 96.84423805 1.02730103 98.27366638 1.01928711 C100.51953125 1.1328125 100.51953125 1.1328125 102.51953125 2.1328125 C105.04499576 2.24986414 107.54449857 2.30796393 110.07104492 2.32226562 C111.23967575 2.33470558 111.23967575 2.33470558 112.43191528 2.34739685 C114.12722412 2.36481672 115.8225573 2.37997822 117.51790428 2.39317322 C120.2042455 2.41419353 122.89046623 2.44122105 125.57673645 2.46984863 C131.2867882 2.52959944 136.99689684 2.5816666 142.70703125 2.6328125 C149.30691689 2.69212701 155.90674434 2.75460277 162.50652504 2.82469177 C165.1470058 2.85115664 167.78749264 2.87204351 170.42802429 2.8927002 C172.05903393 2.90931751 173.69004099 2.92619058 175.32104492 2.94335938 C176.05014572 2.94754379 176.77924652 2.95172821 177.53044128 2.95603943 C189.47698777 3.10086141 189.47698777 3.10086141 194.51953125 7.1328125 C197.09211791 7.91113894 197.09211791 7.91113894 199.76953125 8.3203125 C200.6615625 8.47886719 201.55359375 8.63742187 202.47265625 8.80078125 C203.148125 8.91035156 203.82359375 9.01992188 204.51953125 9.1328125 C191.24172657 15.77171484 173.63420081 13.26888949 159.06298828 13.24633789 C156.49937949 13.24605545 153.93577061 13.24621487 151.37216187 13.2467804 C145.8775586 13.24700713 140.38297063 13.24419556 134.88837051 13.23854256 C126.94435045 13.23037489 119.00033611 13.22780697 111.05631231 13.22655457 C98.16400311 13.22437228 85.27170028 13.21773461 72.37939453 13.20825195 C59.86442089 13.19905647 47.34944899 13.19198611 34.83447266 13.18774414 C34.06153193 13.18748142 33.28859121 13.18721869 32.49222805 13.18694801 C28.61415841 13.18564286 24.73608877 13.18437918 20.85801911 13.18313611 C-11.2548148 13.17278915 -43.36764089 13.15519335 -75.48046875 13.1328125 C-73.09113457 11.53992305 -71.02251875 10.40428543 -68.42578125 9.2578125 C-67.64589844 8.91234375 -66.86601563 8.566875 -66.0625 8.2109375 C-65.25167969 7.85515625 -64.44085937 7.499375 -63.60546875 7.1328125 C-62.40083984 6.59914063 -62.40083984 6.59914063 -61.171875 6.0546875 C-58.94504236 5.07150604 -56.71837004 4.09054774 -54.48046875 3.1328125 C-53.67150146 2.76744385 -52.86253418 2.4020752 -52.02905273 2.02563477 C-49.28895398 1.06572087 -47.27476821 0.9160998 -44.3828125 0.97265625 C-43.41537109 0.98361328 -42.44792969 0.99457031 -41.45117188 1.00585938 C-39.94973633 1.03776367 -39.94973633 1.03776367 -38.41796875 1.0703125 C-36.44800353 1.10551373 -34.47793727 1.13544841 -32.5078125 1.16015625 C-31.63890381 1.17812256 -30.76999512 1.19608887 -29.87475586 1.21459961 C-26.88704879 1.14260926 -23.98249337 0.91657218 -21.00878906 0.6394043 C-14.00033796 0.02948858 -7.03126914 -0.01121383 0 0 Z " fill="#C6C8D0" transform="translate(843.48046875,630.8671875)"/>
<path d="M0 0 C26.4 0 52.8 0 80 0 C80 5.61 80 11.22 80 17 C69.77 17 59.54 17 49 17 C49 43.07 49 69.14 49 96 C42.73 96 36.46 96 30 96 C30 69.93 30 43.86 30 17 C20.1 17 10.2 17 0 17 C0 11.39 0 5.78 0 0 Z " fill="#194385" transform="translate(358,710)"/>
<path d="M0 0 C5.94 0 11.88 0 18 0 C24.28382469 15.23799078 30.45890571 30.47358905 36 46 C37.66676671 43.49984993 38.64170671 41.58229167 39.67993164 38.81982422 C40.15536156 37.56369827 40.15536156 37.56369827 40.64039612 36.28219604 C40.97691696 35.38211823 41.31343781 34.48204041 41.66015625 33.5546875 C42.0100914 32.62907013 42.36002655 31.70345276 42.7205658 30.74978638 C43.83811656 27.79285764 44.95073385 24.83410808 46.0625 21.875 C47.17820621 18.90889516 48.29501012 15.94322533 49.41514587 12.97879028 C50.11229917 11.13350936 50.80683005 9.28723525 51.49855042 7.43991089 C51.81235153 6.60879791 52.12615265 5.77768494 52.44946289 4.92138672 C52.72544815 4.18653046 53.00143341 3.45167419 53.28578186 2.69454956 C54 1 54 1 55 0 C56.34267413 -0.08631874 57.68974322 -0.10706473 59.03515625 -0.09765625 C59.84404297 -0.09443359 60.65292969 -0.09121094 61.48632812 -0.08789062 C62.33646484 -0.07951172 63.18660156 -0.07113281 64.0625 -0.0625 C64.91650391 -0.05798828 65.77050781 -0.05347656 66.65039062 -0.04882812 C68.76695663 -0.03700373 70.88348685 -0.01906769 73 0 C72.70867187 0.7528125 72.41734375 1.505625 72.1171875 2.28125 C70.02694035 7.69748789 67.95519541 13.11479789 65.9609375 18.56713867 C63.13324073 26.25493927 60.00304667 33.78160388 56.74365234 41.2956543 C53.36499169 49.09841896 50.11116933 56.94998482 46.875 64.8125 C42.70687842 74.93330312 38.44538645 84.99788048 34 95 C28.06 95 22.12 95 16 95 C17.2382379 91.2852863 18.2946962 88.17858921 19.98046875 84.7578125 C20.51897461 83.62279297 20.51897461 83.62279297 21.06835938 82.46484375 C21.81361816 80.90669363 22.57145286 79.35449561 23.34179688 77.80859375 C23.69693359 77.04933594 24.05207031 76.29007813 24.41796875 75.5078125 C24.74563232 74.83379395 25.0732959 74.15977539 25.41088867 73.46533203 C26.90047848 67.23164869 24.63382216 61.43073521 22.2265625 55.73046875 C21.80673096 54.72401054 21.80673096 54.72401054 21.37841797 53.69721985 C20.46949897 51.52346046 19.54720481 49.35565158 18.625 47.1875 C17.99286242 45.6801548 17.36185172 44.17233655 16.73193359 42.6640625 C15.45156561 39.60036418 14.16697338 36.53849637 12.87890625 33.47802734 C10.0869471 26.83530618 7.35167686 20.16972364 4.625 13.5 C4.15529785 12.36199951 3.6855957 11.22399902 3.20166016 10.05151367 C2.77675293 9.01357666 2.3518457 7.97563965 1.9140625 6.90625 C1.5423291 6.00197266 1.1705957 5.09769531 0.78759766 4.16601562 C0 2 0 2 0 0 Z " fill="#229AA6" transform="translate(973,738)"/>
<path d="M0 0 C13.86 0 27.72 0 42 0 C42.04010881 18.91353187 42.04010881 18.91353187 42.04882812 27.10546875 C42.05475793 32.64991233 42.06169754 38.19433908 42.07543945 43.73876953 C42.08647211 48.21920707 42.09231897 52.6996265 42.09487724 57.1800766 C42.09669543 58.87169428 42.10024347 60.5633112 42.10573006 62.25492096 C42.14389512 74.53373913 41.71357067 86.7420179 41 99 C40.67 99 40.34 99 40 99 C40.00523682 98.13834229 40.01047363 97.27668457 40.01586914 96.38891602 C40.03304604 93.1516139 40.04551531 89.91433524 40.05493164 86.67700195 C40.05991957 85.28343943 40.06671231 83.88988202 40.07543945 82.49633789 C40.08775072 80.47801438 40.09328378 78.45976083 40.09765625 76.44140625 C40.10289307 75.23170166 40.10812988 74.02199707 40.11352539 72.77563477 C39.98505252 68.50287564 39.47206056 64.24854501 39 60 C26.79 60 14.58 60 2 60 C2.33 61.32 2.66 62.64 3 64 C3.01600054 66.76791385 2.97634924 69.50179411 2.87890625 72.265625 C2.85529526 73.05902283 2.83168427 73.85242065 2.80735779 74.66986084 C2.73096071 77.19676683 2.64683387 79.72334767 2.5625 82.25 C2.5092553 83.96613008 2.45651507 85.68227588 2.40429688 87.3984375 C2.27537813 91.59916311 2.13952774 95.79961392 2 100 C1.67 100 1.34 100 1 100 C0.22313231 93.83106501 -0.14081572 87.83812074 -0.11352539 81.62475586 C-0.11367142 80.7358667 -0.11381744 79.84697754 -0.1139679 78.93115234 C-0.11327744 76.02569034 -0.10552608 73.1202944 -0.09765625 70.21484375 C-0.09578899 68.18746475 -0.09436654 66.1600853 -0.09336853 64.13270569 C-0.08956764 58.8210829 -0.07975831 53.50948787 -0.06866455 48.19787598 C-0.05658995 41.81172509 -0.05203662 35.42556488 -0.04621124 29.03940582 C-0.03654509 19.35958464 -0.01737157 9.67982423 0 0 Z " fill="#F8F9FB" transform="translate(706,414)"/>
<path d="M0 0 C0.99 0.66 1.98 1.32 3 2 C2.39254603 6.85963179 0.27241033 10.7405518 -2 15 C-4.65814895 14.41120572 -6.48516844 13.74193168 -8.9375 12.4375 C-14.93938699 9.83754465 -22.31636905 9.74500901 -28.4765625 11.84375 C-32.7190449 14.19538818 -35.48735781 17.16199551 -37.375 21.63671875 C-39.3755918 29.2014565 -38.60890281 36.80368163 -35.30078125 43.86328125 C-33.08052733 47.51036502 -31.10098355 49.62145992 -27 51 C-19.31710677 52.02500138 -12.6151557 51.64467465 -5.76953125 47.875 C-4 47 -4 47 -1 47 C-0.32739649 48.76858691 0.33788395 50.53996016 1 52.3125 C1.37125 53.29863281 1.7425 54.28476562 2.125 55.30078125 C3 58 3 58 3 61 C1.0848421 61.81604999 -0.83218834 62.62770632 -2.75 63.4375 C-3.81734375 63.88996094 -4.8846875 64.34242188 -5.984375 64.80859375 C-14.10988204 68.01880055 -24.40096847 68.45243694 -32.90625 66.24609375 C-35.06796544 65.30219403 -37.0095121 64.26151536 -39 63 C-40.051875 62.401875 -41.10375 61.80375 -42.1875 61.1875 C-49.60186005 55.42077552 -53.94065931 48.15934476 -56 39 C-57.20738711 25.52665751 -55.95771839 15.55188513 -47.17578125 4.7578125 C-33.981006 -8.13268072 -15.57017235 -7.79689966 0 0 Z " fill="#123F81" transform="translate(561,741)"/>
<path d="M0 0 C6.21120058 3.62691797 10.90885625 8.67414149 15.9296875 13.76953125 C16.88792097 14.73404961 17.8466811 15.698045 18.80593872 16.6615448 C21.3223953 19.1912464 23.8332185 21.72645822 26.34240723 24.2633667 C30.34884184 28.31304081 34.36198356 32.35603678 38.37860489 36.39560509 C39.76788605 37.79496287 41.1535105 39.19794806 42.53903198 40.60102844 C48.28628507 46.39187888 54.22565332 51.81876494 60.4609375 57.07421875 C61.09257813 57.60660156 61.72421875 58.13898437 62.375 58.6875 C63.34566406 59.49767578 63.34566406 59.49767578 64.3359375 60.32421875 C67.30400967 63.31319284 68.31150257 66.1397617 68.4375 70.3125 C68.32882737 75.38667582 66.45034182 78.39326874 63 82 C60.6875 83.9375 60.6875 83.9375 59 85 C58.5875 84.57589844 58.175 84.15179687 57.75 83.71484375 C54.68070333 80.59758932 51.57852532 77.59024991 48.25 74.75 C44.32856649 71.37574326 40.70605579 67.73631718 37.07617188 64.05664062 C33.78698295 60.74000367 30.37865071 57.64031158 26.828125 54.609375 C24.39207254 52.464816 22.14447078 50.15841575 19.87524414 47.84008789 C18.06644842 46.06520268 16.19572855 44.42940068 14.26171875 42.79296875 C9.97127862 39.06339628 6.13915165 35.00959991 2.3125 30.8125 C-2.47014176 25.51036795 -2.47014176 25.51036795 -7.83203125 20.82421875 C-10.30976697 18.73934924 -11.06413478 17.06283164 -12 14 C-11.30132813 13.24074219 -10.60265625 12.48148438 -9.8828125 11.69921875 C-8.96343578 10.69540947 -8.04417079 9.69149785 -7.125 8.6875 C-6.66480469 8.18798828 -6.20460938 7.68847656 -5.73046875 7.17382812 C-3.61393392 4.85790957 -1.74473617 2.61710426 0 0 Z " fill="#38BAA9" transform="translate(999,547)"/>
<path d="M0 0 C0 32.01 0 64.02 0 97 C-5.61 97 -11.22 97 -17 97 C-17 65.65 -17 34.3 -17 2 C-5 0 -5 0 0 0 Z " fill="#29ACA7" transform="translate(1090,709)"/>
<path d="M0 0 C0 32.01 0 64.02 0 97 C-5.61 97 -11.22 97 -17 97 C-17 65.65 -17 34.3 -17 2 C-4 0 -4 0 0 0 Z " fill="#239FA5" transform="translate(833,709)"/>
<path d="M0 0 C1.1240625 0.00644531 2.248125 0.01289062 3.40625 0.01953125 C5.95563254 0.1579447 8.0737182 0.44415386 10.5 1.1875 C10.04775239 7.10242272 9.3417395 12.53949888 7.5 18.1875 C6.96117187 18.02894531 6.42234375 17.87039063 5.8671875 17.70703125 C-0.18936414 16.37778807 -6.43728229 16.21042319 -12.0625 18.875 C-15.91604149 22.53092398 -17.63423514 25.38169989 -17.93237305 30.70239258 C-17.97361536 32.49532623 -17.99919155 34.28866707 -18.01171875 36.08203125 C-18.02966995 37.02938644 -18.04762115 37.97674164 -18.06611633 38.95280457 C-18.12015087 41.96849157 -18.15409327 44.9840209 -18.1875 48 C-18.2206791 50.04885003 -18.25516931 52.09767928 -18.29101562 54.14648438 C-18.37587356 59.16004238 -18.44271765 64.17355417 -18.5 69.1875 C-24.11 69.1875 -29.72 69.1875 -35.5 69.1875 C-35.5 46.7475 -35.5 24.3075 -35.5 1.1875 C-30.22 1.1875 -24.94 1.1875 -19.5 1.1875 C-19.5 3.8275 -19.5 6.4675 -19.5 9.1875 C-18.89671875 8.70539062 -18.2934375 8.22328125 -17.671875 7.7265625 C-16.87265625 7.09492187 -16.0734375 6.46328125 -15.25 5.8125 C-14.46109375 5.18601562 -13.6721875 4.55953125 -12.859375 3.9140625 C-8.37714093 0.63401704 -5.61892731 -0.07088096 0 0 Z " fill="#24A4A7" transform="translate(958.5,736.8125)"/>
<path d="M0 0 C0.66 0.33 1.32 0.66 2 1 C4.58079032 9.14986416 3.43267455 13.44910858 -0.375 21.0625 C-11.24901826 43.60026969 -10.67397738 71.39592859 -2.8125 94.8125 C-2.46832031 95.74707031 -2.12414062 96.68164062 -1.76953125 97.64453125 C-1 100 -1 100 -1 103 C-0.34805664 104.02230713 0.30388672 105.04461426 0.97558594 106.09790039 C3.59028179 110.50297543 3.51413398 114.41536366 3.390625 119.43359375 C3.38496521 120.31153091 3.37930542 121.18946808 3.37347412 122.0940094 C3.35122853 124.8757468 3.30105591 127.65615732 3.25 130.4375 C3.22991965 132.33266358 3.21167158 134.22784752 3.1953125 136.12304688 C3.1514027 140.74920284 3.08245882 145.37437709 3 150 C2.67 150 2.34 150 2 150 C2.00112793 149.24904053 2.00225586 148.49808105 2.00341797 147.72436523 C1.99125069 144.29451574 1.93352773 140.86685898 1.875 137.4375 C1.87757813 136.25607422 1.88015625 135.07464844 1.8828125 133.85742188 C1.73463636 127.24506161 1.41288116 123.19025603 -3.44042969 118.51977539 C-5.96513594 116.05949104 -7.44712442 113.10289164 -9.0625 110 C-9.39975098 109.3591748 -9.73700195 108.71834961 -10.08447266 108.05810547 C-13.53100266 101.2952587 -15.97179223 94.31098151 -18 87 C-18.18763916 86.36022217 -18.37527832 85.72044434 -18.56860352 85.0612793 C-20.4355098 77.95086601 -20.25903693 70.8705623 -20.1875 63.5625 C-20.18685547 62.28439453 -20.18621094 61.00628906 -20.18554688 59.68945312 C-20.14067516 50.28135032 -20.14067516 50.28135032 -19 48 C-18.86867443 46.39782804 -18.76976991 44.79293859 -18.6875 43.1875 C-17.70887636 31.82953468 -13.39065456 21.92171826 -8 12 C-7.62617187 11.29746094 -7.25234375 10.59492188 -6.8671875 9.87109375 C-4.89859845 6.28268143 -2.64614257 3.11866802 0 0 Z " fill="#7B8DB0" transform="translate(804,417)"/>
<path d="M0 0 C3 1 3 1 4.2890625 3.30078125 C4.72992187 4.29464844 5.17078125 5.28851562 5.625 6.3125 C11.10473623 17.71846949 19.72152369 29.32525576 29.765625 37.15625 C30.87164063 38.06890625 30.87164063 38.06890625 32 39 C32 39.66 32 40.32 32 41 C28.5887502 44.16164615 25.24088496 46.52541586 21.14453125 48.75390625 C16.27546537 51.58310847 11.66246246 54.8457561 7 58 C6.34 57.67 5.68 57.34 5 57 C5.01110306 56.43338654 5.02220612 55.86677307 5.03364563 55.2829895 C5.14491704 49.34507127 5.2199458 43.40745278 5.2746582 37.46875 C5.29968484 35.25736445 5.3337169 33.04606063 5.37719727 30.83496094 C5.43837176 27.64237209 5.46632914 24.45088387 5.48828125 21.2578125 C5.51408768 20.28135773 5.5398941 19.30490295 5.56648254 18.29885864 C5.56936706 11.11748816 3.68549735 6.13363291 0 0 Z " fill="#133777" transform="translate(801,517)"/>
<path d="M0 0 C0.83144531 0.00902344 1.66289063 0.01804687 2.51953125 0.02734375 C4.55481337 0.0507378 6.58994564 0.08660275 8.625 0.125 C9.53373094 8.48869036 9.53373094 8.48869036 7.4296875 12.27734375 C3.96522078 16.39466224 1.02898512 18.83332875 -4.43359375 19.49609375 C-13.50918737 19.67445802 -13.50918737 19.67445802 -17.625 17.0625 C-19.7488848 13.49740766 -20.52376759 11.29049259 -20.375 7.125 C-15.10731648 -0.0582048 -8.18723008 -0.16975118 0 0 Z " fill="#F7FBFB" transform="translate(882.375,775.875)"/>
<path d="M0 0 C1.18239258 0.00676758 1.18239258 0.00676758 2.38867188 0.01367188 C4.32164761 0.02538688 6.25458393 0.04332002 8.1875 0.0625 C9.40626312 9.42327781 9.40626312 9.42327781 6.51171875 13.31640625 C1.7272486 17.50609766 -1.83833447 19.20650159 -8.25 19.25 C-9.67119141 19.27126953 -9.67119141 19.27126953 -11.12109375 19.29296875 C-13.92158916 19.05315855 -15.48134047 18.60465169 -17.8125 17.0625 C-19.93227022 13.88284468 -20.35264798 11.86445042 -20.26171875 8.06640625 C-19.8125 6.0625 -19.8125 6.0625 -17.125 3.125 C-11.56961988 -0.33401027 -6.35221022 -0.06921939 0 0 Z " fill="#FAFCFC" transform="translate(775.8125,775.9375)"/>
<path d="M0 0 C0 2.97 0 5.94 0 9 C0.66 9.33 1.32 9.66 2 10 C0.453125 10.2784375 0.453125 10.2784375 -1.125 10.5625 C-15.61717197 14.24955435 -27.74724797 23.89966119 -38.57421875 33.78515625 C-40 35 -40 35 -41 35 C-41.16285834 32.94014359 -41.27878489 30.8765431 -41.375 28.8125 C-41.44460938 27.66394531 -41.51421875 26.51539063 -41.5859375 25.33203125 C-40.92640632 21.58149729 -39.8666096 20.38982895 -36.81884766 18.18188477 C-36.21862793 17.79186279 -35.6184082 17.40184082 -35 17 C-34.07840088 16.39273071 -34.07840088 16.39273071 -33.13818359 15.77319336 C-31.11647845 14.49008112 -29.06864878 13.26838471 -27 12.0625 C-26.26249512 11.6301001 -25.52499023 11.1977002 -24.76513672 10.75219727 C-6.0647899 0 -6.0647899 0 0 0 Z " fill="#CBD0DC" transform="translate(865,373)"/>
<path d="M0 0 C4.54215642 2.11445213 6.93725527 4.4402485 9 9 C9.495 11.97 9.495 11.97 10 15 C-0.89 15 -11.78 15 -23 15 C-21.87145749 8.22874494 -21.87145749 8.22874494 -19.125 5.25 C-18.61195313 4.67765625 -18.09890625 4.1053125 -17.5703125 3.515625 C-12.48188012 -1.39559829 -6.67146788 -0.66468499 0 0 Z " fill="#F5F6F9" transform="translate(470,750)"/>
<path d="M0 0 C8.55252661 -0.97187802 16.6049699 2.98420035 23.375 8 C24.58937061 8.99265979 25.79817297 9.99218989 27 11 C27.55429687 11.39960938 28.10859375 11.79921875 28.6796875 12.2109375 C32.92496847 15.35793682 35.25303256 19.0879386 37 24 C37 24.99 37 25.98 37 27 C34 29 34 29 32.07421875 28.94921875 C29.06146909 27.5705028 27.77339598 25.4591738 25.8125 22.8125 C19.13189658 14.39624961 12.39488161 10.47393842 2 8 C2 7.34 2 6.68 2 6 C1.01 6 0.02 6 -1 6 C-0.67 4.02 -0.34 2.04 0 0 Z " fill="#EDFAF5" transform="translate(905,428)"/>
<path d="M0 0 C2.52445777 1.08909129 5.0113365 2.21060968 7.5 3.375 C14.56122497 6.58903532 21.34078636 8.62291536 29 10 C22.5546875 17.84179688 22.5546875 17.84179688 19 20 C18.34 20 17.68 20 17 20 C16.67 19.34 16.34 18.68 16 18 C14.09864548 17.07386186 14.09864548 17.07386186 11.75 16.25 C3.97943998 13.27165855 -3.57904985 9.76425008 -11 6 C-8.65034134 0.32165823 -5.9681206 -1.65460999 0 0 Z " fill="#123C77" transform="translate(848,566)"/>
<path d="M0 0 C4.18932464 0.27050275 7.25879516 0.56274647 10.234375 3.71484375 C12.109375 7.08984375 12.109375 7.08984375 12.171875 10.65234375 C11.03985059 14.31477567 9.76459344 16.35416414 7.109375 19.08984375 C4.20641695 20.54132278 2.33675721 20.462234 -0.890625 20.08984375 C-4.42696179 18.02142035 -6.28159047 16.79083412 -7.6640625 12.9296875 C-8.09593453 10.48920309 -8.25074071 8.54396562 -7.890625 6.08984375 C-5.515625 3.08984375 -5.515625 3.08984375 -2.890625 1.08984375 C-1.890625 0.08984375 -1.890625 0.08984375 0 0 Z " fill="#1C87A2" transform="translate(1047.890625,787.91015625)"/>
<path d="M0 0 C1.22478736 11.95868773 1.22478736 11.95868773 -1.5703125 16.6171875 C-2.94313506 18.0839675 -4.36132715 19.50952143 -5.8203125 20.890625 C-9.19070937 24.15229939 -11.52833636 28.03972077 -14 32 C-16.81819221 29.18180779 -16.4051425 26.45894634 -16.4375 22.6875 C-16.47746094 21.37136719 -16.51742187 20.05523437 -16.55859375 18.69921875 C-15.86243804 14.08901273 -14.51951181 12.9550155 -11 10 C-10.12859375 9.11699219 -9.2571875 8.23398437 -8.359375 7.32421875 C-7.49828125 6.45410156 -6.6371875 5.58398438 -5.75 4.6875 C-4.87859375 3.80449219 -4.0071875 2.92148437 -3.109375 2.01171875 C-1 0 -1 0 0 0 Z " fill="#105081" transform="translate(823,396)"/>
<path d="M0 0 C2.0625 0.4375 2.0625 0.4375 4 1 C3.649375 1.5775 3.29875 2.155 2.9375 2.75 C1.81120221 5.45311469 2.09233725 6.27701175 3 9 C3.75 11.5625 3.75 11.5625 4 14 C2.875 15.875 2.875 15.875 1 17 C-3.5273626 16.69063022 -5.430945 15.03102714 -8.375 11.6875 C-9.08398438 10.90761719 -9.79296875 10.12773437 -10.5234375 9.32421875 C-12 7 -12 7 -11.8515625 4.83203125 C-11 3 -11 3 -9 1 C-7.08984375 0.83984375 -7.08984375 0.83984375 -4.9375 0.9375 C-3.638125 0.958125 -2.33875 0.97875 -1 1 C-0.67 0.67 -0.34 0.34 0 0 Z " fill="#F0F8F9" transform="translate(899,309)"/>
<path d="M0 0 C4.9307845 0.9861569 8.40258537 2.40258537 12 6 C12.42195626 9.71321511 12.28831289 11.53015677 10.3125 14.75 C7.05284323 17.92155794 4.53226792 19 0 19 C0 12.73 0 6.46 0 0 Z " fill="#3086A6" transform="translate(769,320)"/>
<path d="M0 0 C1.03330948 0.00141495 2.06661896 0.0028299 3.13124084 0.00428772 C6.41174285 0.00985786 9.69217508 0.02240484 12.97265625 0.03515625 C15.20507714 0.04017511 17.4374991 0.04473734 19.66992188 0.04882812 C25.12502356 0.0598175 30.58008492 0.07652575 36.03515625 0.09765625 C36.03515625 1.08765625 36.03515625 2.07765625 36.03515625 3.09765625 C18.54515625 3.09765625 1.05515625 3.09765625 -16.96484375 3.09765625 C-17.29484375 2.43765625 -17.62484375 1.77765625 -17.96484375 1.09765625 C-11.94816025 0.04190547 -6.09936466 -0.0317364 0 0 Z " fill="#E3E4E8" transform="translate(907.96484375,629.90234375)"/>
<path d="M0 0 C0 5.94 0 11.88 0 18 C-4.95442346 17.00911531 -6.63127563 16.55587572 -10 13 C-11.125 9.5625 -11.125 9.5625 -11 6 C-7.51932814 1.67267823 -5.55937715 0 0 0 Z " fill="#3390A8" transform="translate(759,282)"/>
<path d="M0 0 C0.33 0.99 0.66 1.98 1 3 C2.69769234 4.10168984 2.69769234 4.10168984 5 5 C5.90105469 5.39058594 5.90105469 5.39058594 6.8203125 5.7890625 C8.5429003 6.53528474 10.27109245 7.26853911 12 8 C9.0094833 11.33557632 6.06815373 13.15083921 2 15 C1.45730469 14.59007812 0.91460938 14.18015625 0.35546875 13.7578125 C-0.35996094 13.21898437 -1.07539062 12.68015625 -1.8125 12.125 C-2.52019531 11.59132813 -3.22789062 11.05765625 -3.95703125 10.5078125 C-5.60456297 9.29185219 -7.29624211 8.13583859 -9 7 C-6.0534615 5.19933758 -3.11198065 3.49836105 0 2 C0 1.34 0 0.68 0 0 Z " fill="#7285AC" transform="translate(833,556)"/>
<path d="M0 0 C3.37392649 0.6747853 4.56220896 1.66784386 6.5 4.5 C6.4375 7.625 6.4375 7.625 5.5 10.5 C2.03076119 12.81282587 0.57794425 12.92478586 -3.5 12.5 C-5.375 11.3125 -5.375 11.3125 -6.5 9.5 C-6.9375 7.0625 -6.9375 7.0625 -6.5 4.5 C-4.50600369 1.76748653 -3.3376027 0.66752054 0 0 Z " fill="#F1F6F9" transform="translate(686.5,326.5)"/>
<path d="M0 0 C3.5625 0.3125 3.5625 0.3125 5.5 1.4375 C7.06672245 4.20230433 6.95226435 6.19438517 6.5625 9.3125 C5.5 11.25 5.5 11.25 3.5625 12.3125 C0 12.1875 0 12.1875 -3.4375 11.3125 C-5.73913882 7.86004176 -5.78240322 6.36511287 -5.4375 2.3125 C-3.4375 0.3125 -3.4375 0.3125 0 0 Z " fill="#F7F9FB" transform="translate(638.4375,295.6875)"/>
<path d="M0 0 C3.5625 0.3125 3.5625 0.3125 5.5625 1.375 C7.19628851 4.54046524 6.41517564 6.96270286 5.5625 10.3125 C2.32996204 12.46752531 1.31099077 12.78106135 -2.4375 12.3125 C-4.25 11.25 -4.25 11.25 -5.4375 9.3125 C-5.75 5.75 -5.75 5.75 -5.4375 2.3125 C-3.4375 0.3125 -3.4375 0.3125 0 0 Z " fill="#F1F5F8" transform="translate(663.4375,312.6875)"/>
<path d="M0 0 C0.33 0.66 0.66 1.32 1 2 C1.99 2.33 2.98 2.66 4 3 C3.93489583 5.01822917 3.86979167 7.03645833 3.8046875 9.0546875 C3.81668311 11.23863645 3.81668311 11.23863645 6 13 C1.80078125 17.00390625 1.80078125 17.00390625 0 18 C-2.70703125 17.65234375 -2.70703125 17.65234375 -5 17 C-4.91306859 15.20741442 -4.80489496 13.41584856 -4.6875 11.625 C-4.60048828 10.12839844 -4.60048828 10.12839844 -4.51171875 8.6015625 C-4.34285156 7.74304688 -4.17398438 6.88453125 -4 6 C-3.01 5.34 -2.02 4.68 -1 4 C-0.27617533 1.94074861 -0.27617533 1.94074861 0 0 Z " fill="#83D7C4" transform="translate(909,456)"/>
<path d="M0 0 C-0.21484375 1.84765625 -0.21484375 1.84765625 -1 4 C-3.00390625 5.30859375 -3.00390625 5.30859375 -5.5625 6.4375 C-9.75273678 8.37330523 -13.56746601 10.52546405 -17.40625 13.08203125 C-19 14 -19 14 -21 14 C-19.62358309 9.1825408 -16.8518049 6.91976322 -13 4 C-12.13375 3.2575 -11.2675 2.515 -10.375 1.75 C-6.67184905 -0.97863754 -4.36601322 -1.40336139 0 0 Z " fill="#77CDBD" transform="translate(877,431)"/>
<path d="M0 0 C1 1 1 1 1.25 3.875 C1 7 1 7 -0.125 8.9375 C-2 10 -2 10 -5.0625 9.8125 C-8 9 -8 9 -10 7 C-10.35877543 4.20155166 -10.33812547 2.596692 -8.9375 0.125 C-5.85798867 -1.66310335 -3.35666727 -0.74592606 0 0 Z " fill="#F0F4F7" transform="translate(631,316)"/>
<path d="M0 0 C0.66 0 1.32 0 2 0 C2 15.51 2 31.02 2 47 C1.01 46.34 0.02 45.68 -1 45 C-1 44.34 -1 43.68 -1 43 C-0.34 43 0.32 43 1 43 C0.83628906 41.70320313 0.67257812 40.40640625 0.50390625 39.0703125 C-0.26762794 31.35497059 -0.10661134 23.61862084 -0.0625 15.875 C-0.0574735 14.33073062 -0.05291264 12.78645966 -0.04882812 11.2421875 C-0.03791697 7.49475813 -0.02071614 3.74738951 0 0 Z " fill="#1C3873" transform="translate(646,461)"/>
<path d="M0 0 C2.5625 0.3125 2.5625 0.3125 4.4375 1.5 C5.5625 3.3125 5.5625 3.3125 5.375 5.875 C4.5625 8.3125 4.5625 8.3125 2.5625 10.3125 C-0.30762296 10.68046448 -1.84524618 10.68759409 -4.3125 9.125 C-5.4375 7.3125 -5.4375 7.3125 -5.25 4.75 C-4.18108204 1.54324612 -3.41484064 0.43780008 0 0 Z " fill="#F3F6F9" transform="translate(649.4375,328.6875)"/>
<path d="M0 0 C0 0.66 0 1.32 0 2 C-3.96 2.66 -7.92 3.32 -12 4 C-12.73191813 7.65959064 -13.11385165 10.26185749 -13.0625 13.87109375 C-13.05476562 14.77537109 -13.04703125 15.67964844 -13.0390625 16.61132812 C-13.01307481 18.49153721 -12.98703337 20.37174554 -12.9609375 22.25195312 C-12.92070947 26.96198525 -13.00977721 31.3660668 -14 36 C-14.33 36 -14.66 36 -15 36 C-15 24.78 -15 13.56 -15 2 C-2 0 -2 0 0 0 Z " fill="#2EB1A8" transform="translate(831,709)"/>
<path d="M0 0 C0.66 0 1.32 0 2 0 C2.06058594 0.83402344 2.12117187 1.66804688 2.18359375 2.52734375 C2.35824003 4.87297761 2.54099011 7.21801768 2.73046875 9.5625 C2.88224963 11.49825609 3.02077256 13.43550748 3.11328125 15.375 C3.70861673 24.35606095 7.66235296 32.74126406 11 41 C3.81670142 34.67258381 0.93193685 23.33287482 0 14 C-0.14188788 9.32748525 -0.12119309 4.67266691 0 0 Z " fill="#206896" transform="translate(836,470)"/>
<path d="M0 0 C0.33 0 0.66 0 1 0 C1.16795977 7.65366695 1.32789923 15.3074709 1.48217773 22.96142578 C1.53565322 25.56693344 1.59098672 28.17240363 1.64819336 30.77783203 C1.72994957 34.51586832 1.80509304 38.253987 1.87890625 41.9921875 C1.91945885 43.74847977 1.91945885 43.74847977 1.96083069 45.54025269 C1.98092697 46.62122223 2.00102325 47.70219177 2.02172852 48.81591797 C2.04171402 49.77078094 2.06169952 50.72564392 2.08229065 51.70944214 C2 54 2 54 1 56 C1.66 56.33 2.32 56.66 3 57 C3 57.99 3 58.98 3 60 C1.35 59.34 -0.3 58.68 -2 58 C-1.01 57.505 -1.01 57.505 0 57 C0 38.19 0 19.38 0 0 Z " fill="#546F9E" transform="translate(706,505)"/>
<path d="M0 0 C2 0.8125 2 0.8125 3.25 2.875 C3.4975 3.514375 3.745 4.15375 4 4.8125 C2.71937515 6.5199998 1.38232443 8.18623596 0 9.8125 C-0.66 9.8125 -1.32 9.8125 -2 9.8125 C-2 7.1725 -2 4.5325 -2 1.8125 C-2.66 1.4825 -3.32 1.1525 -4 0.8125 C-2 -0.1875 -2 -0.1875 0 0 Z " fill="#137F8F" transform="translate(995,543.1875)"/>
<path d="M0 0 C0 0.66 0 1.32 0 2 C-3.96 2.66 -7.92 3.32 -12 4 C-12.66 7.63 -13.32 11.26 -14 15 C-14.33 15 -14.66 15 -15 15 C-15 10.71 -15 6.42 -15 2 C-2.25 0 -2.25 0 0 0 Z " fill="#36BCA9" transform="translate(831,709)"/>
<path d="M0 0 C0.33 0.66 0.66 1.32 1 2 C-1.39054107 3.1787322 -3.78645215 4.34302997 -6.1875 5.5 C-6.86103516 5.83386719 -7.53457031 6.16773438 -8.22851562 6.51171875 C-11.96303529 8.29700132 -14.75794549 9.46127195 -19 9 C-19 8.34 -19 7.68 -19 7 C-17.68 6.34 -16.36 5.68 -15 5 C-15 5.66 -15 6.32 -15 7 C-10.05 4.69 -5.1 2.38 0 0 Z " fill="#2D4F89" transform="translate(781,588)"/>
<path d="M0 0 C0 0.33 0 0.66 0 1 C-2.97 1.66 -5.94 2.32 -9 3 C-9.12375 4.299375 -9.2475 5.59875 -9.375 6.9375 C-9.5859375 9.15234375 -9.5859375 9.15234375 -10 11 C-10.99 11.495 -10.99 11.495 -12 12 C-12 8.37 -12 4.74 -12 1 C-7.76358987 0.15271797 -4.27587998 -0.08384078 0 0 Z " fill="#0F5389" transform="translate(600,279)"/>
<path d="M0 0 C0 4.13781054 -1.71509607 5.20919996 -4.5 8.1875 C-5.3353125 9.08855469 -6.170625 9.98960937 -7.03125 10.91796875 C-7.6809375 11.60503906 -8.330625 12.29210937 -9 13 C-9.33 12.01 -9.66 11.02 -10 10 C-8.671875 8.02734375 -8.671875 8.02734375 -6.75 5.9375 C-6.12609375 5.24527344 -5.5021875 4.55304687 -4.859375 3.83984375 C-3 2 -3 2 0 0 Z " fill="#194384" transform="translate(445,741)"/>
<path d="M0 0 C0 4.15560231 -2.2820452 5.84099329 -5 8.6875 C-5.47695312 9.19861328 -5.95390625 9.70972656 -6.4453125 10.23632812 C-7.62359915 11.49709484 -8.81095253 12.74937686 -10 14 C-10.33 13.01 -10.66 12.02 -11 11 C-7.37 7.37 -3.74 3.74 0 0 Z " fill="#3FB2AD" transform="translate(1136,752)"/>
<path d="M0 0 C0.33 0 0.66 0 1 0 C3.48260659 7.60298267 3.18508331 15.10311193 3 23 C2.67 23 2.34 23 2 23 C1.92652344 21.53626953 1.92652344 21.53626953 1.8515625 20.04296875 C1.77679687 18.77066406 1.70203125 17.49835938 1.625 16.1875 C1.55539062 14.92292969 1.48578125 13.65835937 1.4140625 12.35546875 C1.23897061 8.87244766 1.23897061 8.87244766 -1 6 C-1.1875 3.375 -1.1875 3.375 -1 1 C-0.67 0.67 -0.34 0.34 0 0 Z " fill="#6ED1B8" transform="translate(953,461)"/>
<path d="M0 0 C0.66 0.33 1.32 0.66 2 1 C0.7251791 3.84383123 -0.45137078 6.13754018 -3 8 C-5.1875 7.6875 -5.1875 7.6875 -7 7 C-2.25 1.125 -2.25 1.125 0 0 Z " fill="#4CBDB6" transform="translate(901,478)"/>
<path d="M0 0 C5.94 0 11.88 0 18 0 C17.01 1.485 17.01 1.485 16 3 C16 2.34 16 1.68 16 1 C13.70759993 1.05985379 11.41593794 1.14859027 9.125 1.25 C7.84882812 1.29640625 6.57265625 1.3428125 5.2578125 1.390625 C1.90811895 1.62555056 1.90811895 1.62555056 0.5546875 4.046875 C0.37164063 4.69140625 0.18859375 5.3359375 0 6 C-0.66 6 -1.32 6 -2 6 C-1.34 4.02 -0.68 2.04 0 0 Z " fill="#4ACBB6" transform="translate(1028,738)"/>
<path d="M0 0 C0.99 0.33 1.98 0.66 3 1 C4.40664926 1.14492123 5.8181133 1.24628931 7.23046875 1.31640625 C8.43413086 1.37924805 8.43413086 1.37924805 9.66210938 1.44335938 C10.49548828 1.48267578 11.32886719 1.52199219 12.1875 1.5625 C13.03248047 1.60568359 13.87746094 1.64886719 14.74804688 1.69335938 C16.83184433 1.79931518 18.91590103 1.9001502 21 2 C21 2.33 21 2.66 21 3 C13.41 3 5.82 3 -2 3 C-2 2.34 -2 1.68 -2 1 C-1.34 0.67 -0.68 0.34 0 0 Z " fill="#E2E6EA" transform="translate(796,630)"/>
<path d="M0 0 C0.99 0 1.98 0 3 0 C3 1.98 3 3.96 3 6 C1.68 6.33 0.36 6.66 -1 7 C-1.625 4.625 -1.625 4.625 -2 2 C-1.34 1.34 -0.68 0.68 0 0 Z " fill="#71BCC9" transform="translate(874,496)"/>
<path d="M0 0 C-0.69867187 0.25394531 -1.39734375 0.50789062 -2.1171875 0.76953125 C-3.48230469 1.28580078 -3.48230469 1.28580078 -4.875 1.8125 C-5.77992188 2.14894531 -6.68484375 2.48539063 -7.6171875 2.83203125 C-10.29425849 3.89649024 -10.29425849 3.89649024 -12 7 C-12.99 6.67 -13.98 6.34 -15 6 C-14 3 -14 3 -11.85546875 1.796875 C-10.97503906 1.45140625 -10.09460938 1.1059375 -9.1875 0.75 C-8.31480469 0.39421875 -7.44210937 0.0384375 -6.54296875 -0.328125 C-3.86358764 -1.03604136 -2.56787877 -0.9337741 0 0 Z " fill="#49BDB8" transform="translate(865,739)"/>
<path d="M0 0 C0.66 0 1.32 0 2 0 C2.30556226 1.38864434 2.56800808 2.78681264 2.8125 4.1875 C2.96332031 4.96480469 3.11414063 5.74210938 3.26953125 6.54296875 C3 9 3 9 -2 14 C-1.34 9.38 -0.68 4.76 0 0 Z " fill="#0E6683" transform="translate(991,545)"/>
<path d="M0 0 C0 1.65 0 3.3 0 5 C-0.33 4.34 -0.66 3.68 -1 3 C-1.54269531 3.48210938 -2.08539062 3.96421875 -2.64453125 4.4609375 C-3.35996094 5.09257813 -4.07539062 5.72421875 -4.8125 6.375 C-5.52019531 7.00148438 -6.22789062 7.62796875 -6.95703125 8.2734375 C-9 10 -9 10 -12 12 C-10.53033642 8.60140297 -8.61962486 6.35036291 -6 3.75 C-5.29875 3.04359375 -4.5975 2.3371875 -3.875 1.609375 C-2 0 -2 0 0 0 Z " fill="#074C73" transform="translate(991,547)"/>
<path d="M0 0 C5.61925626 0.40137545 8.08656763 2.17974459 12 6 C12 6.66 12 7.32 12 8 C11.34 8 10.68 8 10 8 C10 7.34 10 6.68 10 6 C9.278125 5.7525 8.55625 5.505 7.8125 5.25 C4.75286734 3.89016326 2.5326262 2.17082246 0 0 Z " fill="#CED4E0" transform="translate(823,564)"/>
<path d="M0 0 C0.33 0 0.66 0 1 0 C1.02701408 2.10409639 1.04640223 4.20829178 1.0625 6.3125 C1.07410156 7.48425781 1.08570313 8.65601563 1.09765625 9.86328125 C1 13 1 13 0 16 C-0.66 16 -1.32 16 -2 16 C-1.34 10.72 -0.68 5.44 0 0 Z " fill="#4EBBB0" transform="translate(948,374)"/>
<path d="M0 0 C8.44646925 6.15034169 8.44646925 6.15034169 12 10 C8.39428893 9.40716913 6.45570562 7.97258223 3.75 5.5625 C3.04359375 4.94503906 2.3371875 4.32757812 1.609375 3.69140625 C0 2 0 2 0 0 Z " fill="#6DA8CE" transform="translate(857,511)"/>
<path d="M0 0 C-1.28299758 2.86207152 -2.530636 5.0245088 -5 7 C-5.99 7 -6.98 7 -8 7 C-6.47663111 3.31852519 -4.31953005 0 0 0 Z " fill="#0E336F" transform="translate(845,565)"/>
<path d="M0 0 C0 0.66 0 1.32 0 2 C-3.3 2.66 -6.6 3.32 -10 4 C-10.33 3.34 -10.66 2.68 -11 2 C-3.375 0 -3.375 0 0 0 Z " fill="#2A729C" transform="translate(646,268)"/>
<path d="M0 0 C0.33 0.99 0.66 1.98 1 3 C-0.9375 5.6875 -0.9375 5.6875 -3 8 C-3.99 7.67 -4.98 7.34 -6 7 C-4.02 4.69 -2.04 2.38 0 0 Z " fill="#214F8C" transform="translate(516,744)"/>
<path d="M0 0 C-1.0625 1.5 -1.0625 1.5 -3 3 C-6.6875 3.1875 -6.6875 3.1875 -10 3 C-3.66666667 -1.22222222 -3.66666667 -1.22222222 0 0 Z " fill="#B7BFD0" transform="translate(778,641)"/>
<path d="M0 0 C3.31012244 3.31012244 3.50351065 4.53159589 4 9 C3.01 9.33 2.02 9.66 1 10 C0.67 6.7 0.34 3.4 0 0 Z " fill="#AEE9D2" transform="translate(938,446)"/>
<path d="M0 0 C0.99 0.33 1.98 0.66 3 1 C-0.75 7.875 -0.75 7.875 -3 9 C-2.01 6.03 -1.02 3.06 0 0 Z " fill="#125D8E" transform="translate(660,783)"/>
<path d="M0 0 C0.99 0 1.98 0 3 0 C3.144375 0.9075 3.28875 1.815 3.4375 2.75 C3.86409473 5.21476956 4.35074221 7.58847107 5 10 C1.55783328 7.3401439 1.00495326 4.09711714 0 0 Z " fill="#3BBEAE" transform="translate(973,738)"/>
<path d="M0 0 C2 2 2 2 2.1953125 4.3828125 C2.17210937 5.28773438 2.14890625 6.19265625 2.125 7.125 C2.10695313 8.03507812 2.08890625 8.94515625 2.0703125 9.8828125 C2.03550781 10.93082031 2.03550781 10.93082031 2 12 C1.01 11.34 0.02 10.68 -1 10 C-1 9.34 -1 8.68 -1 8 C-0.34 8 0.32 8 1 8 C0.67 5.36 0.34 2.72 0 0 Z " fill="#1B3A78" transform="translate(646,496)"/>
<path d="M0 0 C-0.33 1.32 -0.66 2.64 -1 4 C-1.33 3.01 -1.66 2.02 -2 1 C-4.31 1.33 -6.62 1.66 -9 2 C-8 0 -8 0 -6.1875 -0.6875 C-3.81180233 -1.02688538 -2.26664171 -0.72856341 0 0 Z " fill="#5CC5AF" transform="translate(877,431)"/>
</svg>
